<?xml version="1.0" encoding="utf-8"?>
<!-- Generator: Adobe Illustrator 27.5.0, SVG Export Plug-In . SVG Version: 6.00 Build 0)  -->
<svg version="1.1" xmlns="http://www.w3.org/2000/svg" xmlns:xlink="http://www.w3.org/1999/xlink" x="0px" y="0px"
	 viewBox="0 0 3710 3710" style="enable-background:new 0 0 3710 3710;" xml:space="preserve">
<g id="Background">
	<g>
		<g>
			<rect style="fill:#FFFFFF;" width="3710" height="3710"/>
		</g>
	</g>
</g>
<g id="Illustration">
	<g>
		<linearGradient id="SVGID_1_" gradientUnits="userSpaceOnUse" x1="3408.1982" y1="3617.2368" x2="1360.7892" y2="1407.3347">
			<stop  offset="0" style="stop-color:#DAE3FE"/>
			<stop  offset="1" style="stop-color:#E9EFFD"/>
		</linearGradient>
		<path style="fill:url(#SVGID_1_);" d="M3122.878,2357.896c-281.329,657.573-1023.947,940.017-1605.799,891.86
			c-158.869-13.149-478.518-39.605-728.102-275.628c-479.31-453.269-405.492-1400.726,53.345-1958.536
			c59.089-71.834,468.092-553.117,1105.447-546.676c466.637,4.717,794.165,268.314,833.99,301.153
			c50.311,41.484,161.277,140.065,261.284,296.457C3278.025,1433.993,3298.681,1946.978,3122.878,2357.896z"/>
		<g>
			<path style="fill:#91B3FA;" d="M870.844,468.177c-1.221-11.575,13.292-17.808,20.982-9.071
				c78.091,88.718,261.177,349.551,169.647,766.156c-114.839,522.693-23.07,726.16,102.835,856.936c0,0-183.04-73.301-282.857-280.4
				C636.376,1293.321,892.556,673.983,870.844,468.177z"/>
			<path style="fill:#FFFFFF;" d="M920.371,639.574c5.118,59.895,9.053,119.859,10.79,179.882
				c2.051,60.002,2.283,120.04,0.643,179.998c-1.87,59.947-4.864,119.85-10.399,179.536c-5.266,59.709-13.09,119.124-21.155,178.75
				c-7.727,59.637-15.85,119.672-17.852,180.721c-2.053,60.919,3.132,123.062,19.518,182.415c4.1,14.794,8.487,29.571,13.699,43.942
				c4.949,14.474,10.54,28.733,16.384,42.885c11.831,28.253,25.558,55.77,41.264,82.142c31.551,52.673,71.1,100.5,115.73,142.042
				c4.697,4.372,12.049,4.108,16.422-0.589c4.293-4.612,4.116-11.785-0.339-16.183l-0.032-0.031
				c-10.569-10.411-21.006-20.93-30.938-31.878c-5.055-5.396-9.859-11.005-14.767-16.52c-4.693-5.695-9.609-11.21-14.121-17.044
				c-18.438-23.024-35.237-47.315-50.156-72.728c-30.056-50.624-52.702-106.001-68.456-162.674
				c-7.559-28.435-13.01-57.376-16.215-86.638c-3.183-29.266-4.122-58.823-3.375-88.455c1.491-59.298,9.04-118.786,16.338-178.475
				c7.222-59.712,14.069-119.766,18.435-180.008c2.264-30.111,3.986-60.26,5.167-90.424c0.678-15.078,1.063-30.167,1.476-45.252
				c0.268-15.089,0.452-30.178,0.514-45.265c0.134-60.352-1.574-120.678-5.184-180.867c-3.899-60.17-9.394-120.218-17.193-179.952
				c-0.223-1.708-1.787-2.911-3.495-2.688C921.415,636.434,920.233,637.925,920.371,639.574z"/>
		</g>
		<g>
			<g>
				<path style="fill:#BDD0FB;" d="M793.365,2258.922c-8.005,19.896-33.728,25.15-49.091,10.186
					c-84.769-82.563-303.332-337.673-266.7-744.528c30.934-343.571,15.058-532.808,1.898-618.216
					c-2.783-18.06,19.108-29.176,32.072-16.298C654.581,1032.143,1083.446,1537.994,793.365,2258.922z"/>
				<path style="fill:#FFFFFF;" d="M764.339,2258.074c-0.453,0.278-0.938,0.516-1.455,0.709c-4.331,1.62-9.155-0.578-10.775-4.908
					c-1.836-4.91-183.392-496.483-161.96-976.137c0.208-4.616,4.118-8.194,8.74-7.992c4.62,0.208,8.197,4.119,7.992,8.74
					c-21.277,476.163,159.089,964.645,160.912,969.522C769.22,2251.823,767.686,2256.02,764.339,2258.074z"/>
			</g>
		</g>
		<g>
			
				<ellipse transform="matrix(0.0439 -0.999 0.999 0.0439 69.9843 3661.9937)" style="fill:#7D97F4;" cx="1948.135" cy="1794.435" rx="1204.174" ry="1299.787"/>
			<ellipse style="opacity:0.2;fill:#FFFFFF;" cx="1877.787" cy="1707.555" rx="1019.93" ry="963.508"/>
			<g style="opacity:0.68;">
				<path style="fill:#FFFFFF;" d="M2280.187,1800.251c-0.312,212.383-14.877,425.199-52.305,634.575
					c-9.476,52.301-20.46,104.351-33.549,155.907c-13.128,51.535-28.285,102.624-46.844,152.573
					c-18.713,49.82-40.433,98.923-69.885,143.801c-14.842,22.275-31.676,43.618-52.451,61.176
					c-10.384,8.722-21.789,16.459-34.333,22.126c-12.518,5.631-26.199,9.195-40.084,9.443c-13.867,0.406-27.755-2.309-40.52-7.45
					c-12.815-5.091-24.496-12.479-35.131-20.913c-21.271-17.011-38.476-38.12-53.583-60.219
					c-29.975-44.558-51.989-93.562-70.898-143.304c-18.792-49.864-34.099-100.912-47.341-152.416
					c-13.219-51.521-24.314-103.549-33.868-155.833c-19.067-104.59-32.071-210.186-40.846-316.073
					c-8.712-105.904-13.08-212.146-13.616-318.404c-0.261-53.122,1.189-106.235,3.077-159.316
					c1.989-53.08,4.912-106.125,8.82-159.098c7.858-105.933,19.592-211.632,37.039-316.461
					c8.754-52.403,18.961-104.584,31.238-156.303c12.309-51.702,26.613-102.993,44.357-153.173
					c8.918-25.067,18.669-49.865,29.789-74.081c11.103-24.21,23.529-47.893,38.132-70.283c14.637-22.292,31.463-43.57,52.415-60.603
					c10.475-8.442,22.015-15.787,34.658-20.764c12.593-5.04,26.256-7.593,39.848-7.076c13.6,0.387,27.006,3.778,39.376,9.226
					c12.387,5.474,23.769,12.918,34.218,21.356c20.9,16.984,38.199,37.75,53.545,59.556c30.51,43.916,53.511,92.347,73.435,141.626
					c19.778,49.414,36.108,100.107,50.333,151.323c14.174,51.241,26.176,103.054,36.563,155.17
					C2262.878,1374.989,2279.573,1587.831,2280.187,1800.251z M2264.467,1800.251c0.195-105.825-3.828-211.677-12.622-317.135
					c-8.67-105.454-21.806-210.605-41.375-314.591c-9.772-51.986-21.153-103.677-34.695-154.797
					c-13.59-51.093-29.276-101.665-48.374-150.929c-19.234-49.124-41.54-97.387-71.139-140.99
					c-14.879-21.649-31.662-42.209-51.802-58.936c-10.066-8.313-20.995-15.619-32.821-20.999c-11.814-5.315-24.539-8.8-37.48-9.139
					c-12.932-0.41-25.849,2.192-37.812,7.115c-12.005,4.874-23.027,12.046-33.074,20.326c-20.102,16.701-36.39,37.709-50.547,59.802
					c-14.13,22.188-26.159,45.722-36.887,69.808c-10.746,24.092-20.149,48.792-28.73,73.768
					c-17.068,50.003-30.737,101.158-42.42,152.729c-11.652,51.59-21.247,103.649-29.393,155.926
					c-16.233,104.579-26.776,210.016-33.449,315.646c-6.741,105.644-9.069,211.528-8.879,317.365
					c-0.28,105.819,3.256,211.669,11.121,317.203c7.927,105.515,20.07,210.766,38.241,314.982
					c9.106,52.097,19.743,103.928,32.486,155.225c12.764,51.278,27.575,102.076,45.806,151.599
					c18.33,49.39,39.763,97.983,68.731,141.749c14.578,21.7,31.166,42.282,51.27,58.599c10.046,8.095,20.978,15.101,32.797,19.897
					c11.782,4.809,24.425,7.482,37.091,7.054c12.663-0.326,25.139-3.67,36.722-8.983c11.6-5.35,22.3-12.708,32.127-21.097
					c19.668-16.88,35.902-37.721,50.224-59.608c28.46-44.112,49.586-92.813,67.709-142.286
					c17.985-49.614,32.633-100.454,45.267-151.764c12.599-51.332,23.109-103.187,32.125-155.298
					c18.049-104.236,30.041-209.499,38.014-315.014C2260.778,2011.958,2264.508,1906.097,2264.467,1800.251z"/>
				<path style="fill:#FFFFFF;" d="M2815.963,1800.251c-0.734,136.769-18.313,273.598-54.926,405.491
					c-37.252,131.59-93.408,258.182-169.647,371.837c-38.124,56.766-81.315,110.198-129.576,158.677
					c-48.24,48.464-101.591,91.957-159.503,128.406c-57.965,36.309-120.571,65.375-186.108,85.094
					c-65.498,19.767-133.873,30.078-202.31,30.146c-68.437-0.006-136.831-10.255-202.364-29.968
					c-65.571-19.665-128.228-48.684-186.253-84.957c-57.972-36.412-111.402-79.866-159.72-128.31
					c-48.341-48.457-91.617-101.878-129.827-158.644c-76.393-113.67-132.667-240.318-170.093-371.972
					c-18.422-65.948-32.112-133.199-41.181-201.048c-9.021-67.861-13.554-136.294-13.865-204.751
					c0.354-68.459,4.929-136.886,13.992-204.735c9.113-67.838,22.854-135.069,41.32-200.991
					c37.52-131.601,93.88-258.163,170.323-371.716c38.227-56.713,81.509-110.076,129.844-158.468
					c48.319-48.37,101.71-91.784,159.672-128.08c58.007-36.179,120.65-64.983,186.107-84.641
					c65.415-19.739,133.7-30.035,202.046-30.102c68.347,0.124,136.614,10.477,201.997,30.267
					c65.424,19.71,128.012,48.572,185.959,84.789c57.899,36.338,111.215,79.787,159.453,128.178
					c48.255,48.414,91.452,101.787,129.592,158.501c76.287,113.537,132.533,240.044,169.876,371.581
					C2797.465,1526.676,2815.136,1663.481,2815.963,1800.251z M2797.942,1800.251c-0.198-135.217-17.041-270.578-52.718-401.104
					c-35.875-130.325-89.892-256.142-164.258-369.29c-37.162-56.516-79.37-109.786-126.644-158.209
					c-47.293-48.348-99.53-92.09-156.659-128.446c-57.199-36.153-118.968-65.253-183.735-84.935
					c-64.735-19.697-132.323-30.051-200.034-30.276c-67.711,0.283-135.281,10.694-199.984,30.441
					c-64.734,19.735-126.449,48.893-183.587,85.084c-57.067,36.398-109.227,80.176-156.44,128.544
					c-47.193,48.445-89.316,101.726-126.393,158.243c-74.211,113.134-128.112,238.895-163.81,369.155
					c-17.784,65.204-30.661,131.692-39.386,198.673c-8.746,66.99-13.061,134.545-13.213,202.121
					c0.194,67.575,4.552,135.125,13.339,202.104c8.769,66.97,21.697,133.438,39.525,198.616
					c35.791,130.208,89.781,255.884,164.042,368.899c37.091,56.464,79.22,109.686,126.409,158.066
					c47.213,48.295,99.335,92.033,156.392,128.315c57.121,36.099,118.821,65.04,183.441,84.768
					c64.585,19.774,132.045,30.232,199.666,30.575c67.622-0.281,135.1-10.676,199.72-30.396
					c64.655-19.674,126.406-48.57,183.586-84.631c57.117-36.246,109.318-79.945,156.61-128.22
					c47.268-48.358,89.482-101.57,126.66-158.034c74.415-113.031,128.522-238.762,164.487-369.034
					C2780.716,2070.804,2797.653,1935.467,2797.942,1800.251z"/>
				<path style="fill:#FFFFFF;" d="M861.252,1333.46l270.903-2.189l270.903-1.24l541.805-1l541.806,1.101l270.903,1.355
					l270.903,2.362c0.439,0.004,0.792,0.363,0.788,0.803c-0.003,0.434-0.355,0.784-0.788,0.788l-270.903,2.362l-270.903,1.354
					l-541.806,1.102l-541.805-1l-270.903-1.24l-270.903-2.188c-0.654-0.006-1.18-0.54-1.175-1.194
					C860.082,1333.988,860.607,1333.465,861.252,1333.46z"/>
				<path style="fill:#FFFFFF;" d="M1175.531,879.721c64.11-1.016,128.222-1.451,192.332-2.188l192.333-1.24
					c64.112-0.528,128.222-0.471,192.334-0.635l192.333-0.366l384.665,1.101l192.333,1.354
					c64.112,0.804,128.222,1.274,192.334,2.363c0.439,0.008,0.789,0.37,0.782,0.809c-0.007,0.43-0.356,0.774-0.782,0.782
					c-64.112,1.089-128.222,1.559-192.334,2.363l-192.333,1.354l-384.665,1.101l-192.333-0.366
					c-64.112-0.163-128.222-0.106-192.334-0.635l-192.333-1.24c-64.11-0.737-128.222-1.172-192.332-2.188
					c-0.654-0.01-1.176-0.549-1.166-1.204C1174.375,880.246,1174.895,879.732,1175.531,879.721z"/>
				<path style="fill:#FFFFFF;" d="M767.11,1787.199l294.438-2.181l294.439-1.248l588.876-1.001l588.876,1.102l294.438,1.356
					l294.438,2.362c0.44,0.004,0.793,0.363,0.789,0.802c-0.004,0.435-0.356,0.785-0.789,0.79l-294.438,2.361l-294.438,1.356
					l-588.876,1.102l-588.876-1.001l-294.439-1.248l-294.438-2.181c-0.654-0.005-1.18-0.539-1.176-1.194
					C765.939,1787.726,766.464,1787.204,767.11,1787.199z"/>
				<path style="fill:#FFFFFF;" d="M861.252,2240.937l270.903-2.188l270.903-1.24l541.805-1.001l541.806,1.102l270.903,1.354
					l270.903,2.363c0.439,0.004,0.792,0.363,0.788,0.802c-0.003,0.435-0.355,0.785-0.788,0.788l-270.903,2.363l-270.903,1.355
					l-541.806,1.102l-541.805-1l-270.903-1.24l-270.903-2.189c-0.654-0.005-1.18-0.54-1.175-1.194
					C860.082,2241.465,860.607,2240.943,861.252,2240.937z"/>
				<path style="fill:#FFFFFF;" d="M2752.958,2700.015H1214.296c-2.296,0-4.153-1.859-4.153-4.153c0-2.293,1.857-4.153,4.153-4.153
					h1538.662c2.295,0,4.153,1.86,4.153,4.153C2757.111,2698.156,2755.253,2700.015,2752.958,2700.015z"/>
			</g>
		</g>
		<g>
			<g>
				<path style="fill:#FFFFFF;" d="M1626.534,1220.781c-1.602,0-3.174-0.765-4.148-2.187c-1.566-2.289-0.977-5.412,1.311-6.978
					c4.612-3.154,9.174-6.326,13.685-9.516c2.258-1.601,5.39-1.069,6.998,1.196c1.602,2.263,1.066,5.396-1.199,6.998
					c-4.55,3.223-9.158,6.427-13.816,9.611C1628.498,1220.497,1627.511,1220.781,1626.534,1220.781z"/>
				<path style="fill:#FFFFFF;" d="M1665.853,1192.496c-1.517,0-3.017-0.685-4.004-1.987c-1.677-2.211-1.242-5.36,0.967-7.034
					c8.41-6.373,16.747-12.922,24.781-19.464c2.147-1.752,5.305-1.427,7.063,0.722c1.752,2.151,1.428,5.313-0.722,7.063
					c-8.125,6.615-16.555,13.237-25.056,19.679C1667.974,1192.164,1666.909,1192.496,1665.853,1192.496z M1714.968,1152.464
					c-1.396,0-2.781-0.577-3.775-1.706c-1.83-2.082-1.624-5.254,0.458-7.084c7.952-6.99,15.77-14.138,23.235-21.248
					c2-1.909,5.18-1.839,7.096,0.175c1.912,2.007,1.837,5.185-0.173,7.097c-7.56,7.2-15.479,14.44-23.529,21.516
					C1717.324,1152.053,1716.144,1152.464,1714.968,1152.464z M1760.817,1108.748c-1.255,0-2.51-0.466-3.484-1.405
					c-1.997-1.923-2.056-5.102-0.131-7.097c7.324-7.604,14.492-15.388,21.303-23.139c1.834-2.082,5.001-2.289,7.086-0.456
					c2.082,1.83,2.288,5.002,0.458,7.084c-6.913,7.865-14.185,15.764-21.617,23.475
					C1763.448,1108.233,1762.134,1108.748,1760.817,1108.748z M1802.614,1061.15c-1.095,0-2.2-0.358-3.125-1.093
					c-2.17-1.727-2.526-4.886-0.797-7.055c6.547-8.219,12.92-16.654,18.944-25.07c1.615-2.257,4.752-2.772,7.004-1.16
					c2.255,1.613,2.775,4.749,1.16,7.004c-6.125,8.557-12.603,17.13-19.257,25.482
					C1805.552,1060.501,1804.091,1061.15,1802.614,1061.15z M1839.465,1009.61c-0.925,0-1.856-0.253-2.693-0.786
					c-2.34-1.49-3.027-4.594-1.536-6.931c5.625-8.835,11.054-17.903,16.133-26.956c1.356-2.42,4.419-3.28,6.838-1.922
					c2.415,1.356,3.278,4.417,1.922,6.834c-5.174,9.217-10.698,18.447-16.427,27.437
					C1842.746,1008.789,1841.122,1009.61,1839.465,1009.61z M1870.437,954.338c-0.739,0-1.487-0.163-2.193-0.508
					c-2.494-1.213-3.53-4.218-2.317-6.71c4.569-9.392,8.906-19.021,12.887-28.615c1.062-2.561,3.984-3.78,6.563-2.713
					c2.559,1.062,3.775,3.999,2.713,6.56c-4.059,9.779-8.478,19.591-13.136,29.161
					C1874.084,953.298,1872.296,954.338,1870.437,954.338z M1894.705,895.838c-0.542,0-1.098-0.09-1.641-0.278
					c-2.621-0.905-4.01-3.765-3.105-6.385c3.396-9.812,6.543-19.885,9.358-29.942c0.749-2.67,3.507-4.231,6.187-3.481
					c2.67,0.747,4.229,3.517,3.481,6.187c-2.866,10.25-6.076,20.518-9.534,30.517
					C1898.731,894.534,1896.787,895.838,1894.705,895.838z"/>
				<path style="fill:#FFFFFF;" d="M1911.776,834.802c-0.353,0-0.709-0.038-1.066-0.114c-2.709-0.585-4.432-3.255-3.847-5.966
					c1.164-5.396,2.252-10.866,3.239-16.254c0.497-2.729,3.098-4.53,5.844-4.035c2.726,0.5,4.533,3.115,4.033,5.842
					c-1.007,5.493-2.118,11.065-3.304,16.564C1916.168,833.192,1914.086,834.802,1911.776,834.802z"/>
			</g>
			<g>
				<path style="fill:#FFFFFF;" d="M1954.046,851.348c-1.271,0-2.546-0.48-3.523-1.443c-3.974-3.914-7.939-7.88-11.894-11.902
					c-1.945-1.977-1.919-5.156,0.059-7.099c1.974-1.943,5.158-1.917,7.099,0.059c3.916,3.982,7.848,7.913,11.783,11.787
					c1.974,1.946,2,5.125,0.052,7.099C1956.641,850.848,1955.344,851.348,1954.046,851.348z"/>
				<path style="fill:#FFFFFF;" d="M2340.838,1050.026c-0.16,0-0.32-0.007-0.484-0.023c-10.57-1.007-21.245-2.35-31.723-3.992
					c-2.739-0.43-4.612-2.997-4.18-5.738c0.428-2.739,2.977-4.612,5.736-4.182c10.279,1.611,20.748,2.928,31.122,3.917
					c2.759,0.263,4.785,2.714,4.52,5.473C2345.58,1048.079,2343.394,1050.026,2340.838,1050.026z M2278.274,1040.225
					c-0.353,0-0.716-0.039-1.078-0.118c-10.325-2.262-20.764-4.878-31.021-7.777c-2.667-0.753-4.219-3.528-3.465-6.195
					c0.755-2.669,3.52-4.219,6.197-3.466c10.063,2.844,20.303,5.411,30.439,7.63c2.706,0.593,4.422,3.27,3.827,5.978
					C2282.66,1038.624,2280.581,1040.225,2278.274,1040.225z M2217.311,1023.02c-0.546,0-1.098-0.09-1.644-0.278
					c-9.949-3.446-20.012-7.254-29.909-11.318c-2.563-1.054-3.788-3.987-2.736-6.552c1.056-2.564,3.987-3.793,6.553-2.737
					c9.72,3.994,19.604,7.735,29.38,11.119c2.618,0.907,4.007,3.767,3.099,6.386
					C2221.334,1021.718,2219.39,1023.02,2217.311,1023.02z M2158.669,998.961c-0.722,0-1.458-0.157-2.154-0.489
					c-9.495-4.514-19.074-9.375-28.478-14.451c-2.438-1.317-3.35-4.362-2.033-6.802c1.317-2.443,4.367-3.352,6.805-2.033
					c9.25,4.993,18.679,9.777,28.02,14.219c2.503,1.19,3.566,4.185,2.376,6.689C2162.346,997.902,2160.545,998.961,2158.669,998.961
					z M2102.92,968.897c-0.886,0-1.781-0.234-2.595-0.724c-8.975-5.424-18.032-11.188-26.922-17.13
					c-2.304-1.541-2.922-4.659-1.382-6.963c1.542-2.307,4.657-2.924,6.965-1.384c8.763,5.857,17.689,11.538,26.536,16.885
					c2.373,1.435,3.131,4.52,1.699,6.893C2106.276,968.034,2104.619,968.897,2102.92,968.897z M2050.239,933.714
					c-1.029,0-2.069-0.315-2.964-0.971c-8.459-6.197-16.983-12.711-25.337-19.36c-2.167-1.726-2.526-4.885-0.801-7.053
					c1.732-2.167,4.886-2.53,7.057-0.801c8.246,6.565,16.662,12.997,25.017,19.115c2.236,1.637,2.719,4.78,1.082,7.016
					C2053.308,933.003,2051.785,933.714,2050.239,933.714z M2000.651,894.277c-1.157,0-2.321-0.399-3.268-1.213
					c-7.91-6.793-15.914-13.922-23.794-21.186c-2.04-1.879-2.167-5.056-0.288-7.094c1.876-2.04,5.059-2.164,7.093-0.289
					c7.795,7.187,15.711,14.236,23.533,20.954c2.101,1.806,2.343,4.976,0.536,7.079
					C2003.468,893.684,2002.066,894.277,2000.651,894.277z"/>
				<path style="fill:#FFFFFF;" d="M2389.224,1052.407c-0.007,0-0.013,0-0.016,0c-5.599-0.02-11.279-0.129-16.888-0.325
					c-2.768-0.096-4.938-2.422-4.841-5.192c0.095-2.772,2.327-4.947,5.194-4.842c5.501,0.193,11.077,0.299,16.568,0.319
					c2.775,0.01,5.014,2.265,5.004,5.038C2394.234,1050.171,2391.989,1052.407,2389.224,1052.407z"/>
			</g>
			<g>
				<path style="fill:#FFFFFF;" d="M2388.988,1051.462c-1.883,0-3.69-1.066-4.543-2.881c-2.379-5.045-4.736-10.125-7.08-15.239
					c-1.157-2.52-0.049-5.499,2.471-6.655c2.517-1.16,5.504-0.051,6.655,2.471c2.33,5.081,4.674,10.129,7.034,15.141
					c1.183,2.508,0.108,5.501-2.399,6.682C2390.433,1051.307,2389.704,1051.462,2388.988,1051.462z"/>
				<path style="fill:#FFFFFF;" d="M2838.972,1534.684c-0.634,0-1.281-0.123-1.905-0.379c-10.449-4.296-20.928-8.928-31.145-13.768
					c-2.503-1.186-3.572-4.18-2.386-6.686c1.183-2.505,4.174-3.576,6.687-2.388c10.057,4.765,20.375,9.325,30.661,13.556
					c2.566,1.054,3.788,3.987,2.736,6.552C2842.822,1533.51,2840.949,1534.684,2838.972,1534.684z M2777.914,1505.768
					c-0.804,0-1.618-0.194-2.376-0.601c-9.897-5.328-19.843-11.015-29.563-16.906c-2.373-1.437-3.128-4.524-1.693-6.895
					c1.441-2.375,4.527-3.128,6.896-1.691c9.576,5.801,19.372,11.404,29.118,16.651c2.441,1.314,3.357,4.359,2.04,6.8
					C2781.431,1504.81,2779.702,1505.768,2777.914,1505.768z M2720.109,1470.753c-0.968,0-1.948-0.278-2.808-0.861
					c-9.309-6.293-18.637-12.93-27.726-19.728c-2.219-1.66-2.674-4.806-1.013-7.027c1.66-2.223,4.808-2.675,7.027-1.013
					c8.962,6.702,18.159,13.247,27.334,19.45c2.298,1.552,2.902,4.674,1.347,6.972
					C2723.302,1469.98,2721.717,1470.753,2720.109,1470.753z M2665.997,1430.298c-1.121,0-2.252-0.374-3.187-1.144
					c-8.652-7.117-17.326-14.584-25.778-22.189c-2.059-1.855-2.226-5.029-0.373-7.089c1.86-2.064,5.033-2.226,7.093-0.373
					c8.338,7.506,16.898,14.873,25.438,21.897c2.141,1.762,2.448,4.926,0.687,7.068
					C2668.886,1429.674,2667.448,1430.298,2665.997,1430.298z M2615.765,1385.126c-1.268,0-2.536-0.477-3.513-1.433
					c-7.978-7.815-15.989-15.979-23.804-24.27c-1.902-2.017-1.807-5.195,0.209-7.096c2.02-1.902,5.19-1.809,7.099,0.209
					c7.723,8.192,15.636,16.26,23.523,23.982c1.98,1.94,2.013,5.118,0.075,7.099
					C2618.37,1384.622,2617.065,1385.126,2615.765,1385.126z M2569.396,1335.973c-1.402,0-2.791-0.582-3.785-1.719
					c-7.354-8.423-14.718-17.166-21.879-25.986c-1.749-2.152-1.422-5.314,0.732-7.063c2.147-1.749,5.314-1.418,7.06,0.732
					c7.089,8.728,14.375,17.378,21.65,25.714c1.824,2.089,1.608,5.259-0.48,7.083
					C2571.742,1335.567,2570.566,1335.973,2569.396,1335.973z M2526.775,1283.532c-1.517,0-3.017-0.686-4.004-1.989
					c-6.749-8.91-13.499-18.125-20.065-27.391c-1.605-2.262-1.069-5.395,1.193-6.998c2.255-1.606,5.396-1.069,6.998,1.193
					c6.504,9.178,13.195,18.308,19.875,27.133c1.677,2.211,1.242,5.36-0.971,7.034
					C2528.896,1283.2,2527.831,1283.532,2526.775,1283.532z M2487.688,1228.401c-1.625,0-3.216-0.786-4.184-2.242
					c-6.164-9.272-12.345-18.872-18.378-28.532c-1.468-2.352-0.752-5.448,1.598-6.918c2.35-1.468,5.448-0.753,6.919,1.6
					c5.981,9.58,12.113,19.099,18.221,28.293c1.536,2.309,0.909,5.424-1.402,6.96
					C2489.61,1228.13,2488.643,1228.401,2487.688,1228.401z M2451.873,1171.088c-1.719,0-3.396-0.886-4.331-2.478
					c-5.648-9.599-11.309-19.509-16.829-29.453c-1.346-2.423-0.47-5.479,1.951-6.826c2.425-1.342,5.481-0.472,6.828,1.953
					c5.481,9.871,11.1,19.709,16.705,29.238c1.405,2.389,0.608,5.466-1.781,6.872
					C2453.615,1170.864,2452.739,1171.088,2451.873,1171.088z M2419.061,1111.998c-1.807,0-3.553-0.979-4.448-2.69
					c-5.203-9.921-10.387-20.083-15.414-30.203c-1.232-2.484-0.219-5.496,2.265-6.73c2.478-1.222,5.494-0.221,6.73,2.265
					c4.991,10.055,10.142,20.15,15.309,30.004c1.288,2.456,0.343,5.491-2.115,6.779
					C2420.646,1111.812,2419.849,1111.998,2419.061,1111.998z"/>
				<path style="fill:#FFFFFF;" d="M2886.563,1552.106c-0.51,0-1.03-0.078-1.543-0.244c-5.354-1.727-10.681-3.52-15.979-5.381
					c-2.615-0.918-3.991-3.783-3.072-6.4s3.792-3.996,6.4-3.072c5.219,1.832,10.462,3.595,15.737,5.297
					c2.638,0.852,4.086,3.68,3.236,6.32C2890.656,1550.751,2888.685,1552.106,2886.563,1552.106z"/>
			</g>
			<path style="fill:#FFFFFF;" d="M1888.448,557.94c-51.632,0-93.489,41.856-93.489,93.489c0,33.459,39.26,111.295,66.896,161.942
				c11.488,21.053,41.696,21.053,53.184,0c27.636-50.647,66.896-128.483,66.896-161.942
				C1981.937,599.797,1940.08,557.94,1888.448,557.94z M1888.448,701.624c-27.722,0-50.195-22.473-50.195-50.195
				c0-27.722,22.473-50.195,50.195-50.195c27.722,0,50.195,22.473,50.195,50.195C1938.644,679.151,1916.17,701.624,1888.448,701.624
				z"/>
			<path style="fill:#FFFFFF;" d="M2405.077,733.743c-65.011,0-117.714,52.702-117.714,117.714
				c0,42.13,49.433,140.134,84.231,203.906c14.465,26.508,52.5,26.508,66.966,0c34.798-63.771,84.231-161.776,84.231-203.906
				C2522.791,786.446,2470.089,733.743,2405.077,733.743z M2405.077,914.659c-34.905,0-63.202-28.296-63.202-63.202
				c0-34.905,28.297-63.202,63.202-63.202c34.906,0,63.203,28.297,63.203,63.202C2468.28,886.363,2439.983,914.659,2405.077,914.659
				z"/>
			<path style="fill:#FFFFFF;" d="M1629.603,959.785c-53.544,0-96.949,43.406-96.949,96.949c0,34.698,40.713,115.415,69.373,167.937
				c11.914,21.832,43.24,21.832,55.153,0c28.66-52.522,69.373-133.239,69.373-167.937
				C1726.553,1003.191,1683.147,959.785,1629.603,959.785z M1629.603,1108.788c-28.748,0-52.053-23.305-52.053-52.053
				c0-28.748,23.305-52.053,52.053-52.053c28.748,0,52.054,23.305,52.054,52.053
				C1681.657,1085.483,1658.352,1108.788,1629.603,1108.788z"/>
			<path style="fill:#FFFFFF;" d="M2926.723,1347.881c-53.544,0-96.949,43.406-96.949,96.949
				c0,34.698,40.713,115.415,69.373,167.937c11.914,21.832,43.24,21.832,55.153,0c28.66-52.522,69.373-133.239,69.373-167.937
				C3023.673,1391.287,2980.267,1347.881,2926.723,1347.881z M2926.723,1496.884c-28.748,0-52.053-23.305-52.053-52.053
				c0-28.748,23.305-52.053,52.053-52.053s52.053,23.305,52.053,52.053C2978.777,1473.579,2955.472,1496.884,2926.723,1496.884z"/>
		</g>
		<g>
			
				<linearGradient id="SVGID_00000053512859766187618860000011492282417116162192_" gradientUnits="userSpaceOnUse" x1="2404.7288" y1="2856.9243" x2="892.3619" y2="1187.0197">
				<stop  offset="0" style="stop-color:#FF928E"/>
				<stop  offset="1" style="stop-color:#FE7062"/>
			</linearGradient>
			<path style="fill:url(#SVGID_00000053512859766187618860000011492282417116162192_);" d="M1842.672,1886.195H687.712
				c-15.222,0-27.561-12.34-27.561-27.561v-519.896c0-15.222,12.34-27.561,27.561-27.561h1154.96
				c15.222,0,27.561,12.34,27.561,27.561v519.896C1870.233,1873.855,1857.894,1886.195,1842.672,1886.195z"/>
			<path style="opacity:0.5;fill:#FFFFFF;" d="M1810.955,1861.379H715.008c-15.222,0-27.561-12.34-27.561-27.561v-476.153
				c0-15.222,12.34-27.561,27.561-27.561h1095.947c15.222,0,27.561,12.34,27.561,27.561v476.153
				C1838.516,1849.039,1826.176,1861.379,1810.955,1861.379z"/>
			<g>
				
					<linearGradient id="SVGID_00000145743844334582011110000001423300210575942321_" gradientUnits="userSpaceOnUse" x1="1575.0962" y1="1104.033" x2="1397.7125" y2="1264.6824">
					<stop  offset="0" style="stop-color:#FF928E"/>
					<stop  offset="1" style="stop-color:#FE7062"/>
				</linearGradient>
				<path style="fill:url(#SVGID_00000145743844334582011110000001423300210575942321_);" d="M1126.426,1708.501
					c24.346-35.907,38.572-79.233,38.572-125.884c0-85.661-47.96-160.112-118.487-197.99l-106.112,197.99L1126.426,1708.501z"/>
				
					<linearGradient id="SVGID_00000048485976187565240390000007693982705592414380_" gradientUnits="userSpaceOnUse" x1="888.9807" y1="1570.3741" x2="1114.2462" y2="1028.6648">
					<stop  offset="0" style="stop-color:#4F52FF"/>
					<stop  offset="1" style="stop-color:#4042E2"/>
				</linearGradient>
				<path style="fill:url(#SVGID_00000048485976187565240390000007693982705592414380_);" d="M1046.511,1384.627
					c-31.602-16.972-67.73-26.609-106.112-26.609c-15.518,0-30.668,1.574-45.3,4.571l45.3,220.029L1046.511,1384.627z"/>
				<path style="fill:#7D97F4;" d="M895.098,1362.588c-50.752,10.394-95.258,37.914-127.238,76.247l172.538,143.782
					L895.098,1362.588z"/>
				
					<linearGradient id="SVGID_00000127013040033449945830000011870563941610724280_" gradientUnits="userSpaceOnUse" x1="735.5583" y1="1694.917" x2="1126.4264" y2="1694.917">
					<stop  offset="0" style="stop-color:#DAE3FE"/>
					<stop  offset="1" style="stop-color:#E9EFFD"/>
				</linearGradient>
				<path style="fill:url(#SVGID_00000127013040033449945830000011870563941610724280_);" d="M940.398,1582.617l-204.84,92.246
					c35.197,78.036,113.674,132.354,204.84,132.354c77.393,0,145.639-39.147,186.028-98.716L940.398,1582.617z"/>
				<path style="fill:#91B3FA;" d="M767.86,1438.835c-14.319,17.164-26.123,36.495-34.851,57.433
					c79.518,31.132,207.389,86.349,207.389,86.349L767.86,1438.835z"/>
				<path style="fill:#BDD0FB;" d="M733.009,1496.269c-11.081,26.584-17.211,55.749-17.211,86.349
					c0,32.877,7.066,64.104,19.76,92.246l204.84-92.246C940.398,1582.617,812.527,1527.401,733.009,1496.269z"/>
			</g>
			<g style="opacity:0.78;">
				<path style="fill:#FFFFFF;" d="M1441.518,1441.029h-204.982c-8.575,0-15.526,5.364-15.526,11.98
					c0,6.616,6.951,11.98,15.526,11.98h204.982c8.575,0,15.526-5.364,15.526-11.98
					C1457.044,1446.392,1450.093,1441.029,1441.518,1441.029z"/>
				<path style="fill:#FFFFFF;" d="M1441.518,1494.075h-204.982c-8.575,0-15.526,5.364-15.526,11.98
					c0,6.616,6.951,11.98,15.526,11.98h204.982c8.575,0,15.526-5.364,15.526-11.98
					C1457.044,1499.439,1450.093,1494.075,1441.518,1494.075z"/>
				<path style="fill:#FFFFFF;" d="M1441.518,1706.26h-204.982c-8.575,0-15.526,5.364-15.526,11.98
					c0,6.617,6.951,11.98,15.526,11.98h204.982c8.575,0,15.526-5.364,15.526-11.98
					C1457.044,1711.624,1450.093,1706.26,1441.518,1706.26z"/>
				<path style="fill:#FFFFFF;" d="M1441.518,1653.214h-204.982c-8.575,0-15.526,5.364-15.526,11.98
					c0,6.616,6.951,11.98,15.526,11.98h204.982c8.575,0,15.526-5.364,15.526-11.98
					C1457.044,1658.577,1450.093,1653.214,1441.518,1653.214z"/>
				<path style="fill:#FFFFFF;" d="M1441.518,1600.167h-204.982c-8.575,0-15.526,5.364-15.526,11.98
					c0,6.616,6.951,11.98,15.526,11.98h204.982c8.575,0,15.526-5.363,15.526-11.98
					C1457.044,1605.531,1450.093,1600.167,1441.518,1600.167z"/>
			</g>
			<g style="opacity:0.78;">
				<path style="fill:#FFFFFF;" d="M1776.982,1442.153H1572c-8.575,0-15.526,5.364-15.526,11.98c0,6.616,6.951,11.98,15.526,11.98
					h204.982c8.575,0,15.526-5.364,15.526-11.98C1792.509,1447.517,1785.557,1442.153,1776.982,1442.153z"/>
				<path style="fill:#FFFFFF;" d="M1776.982,1495.199H1572c-8.575,0-15.526,5.364-15.526,11.98c0,6.616,6.951,11.98,15.526,11.98
					h204.982c8.575,0,15.526-5.364,15.526-11.98C1792.509,1500.563,1785.557,1495.199,1776.982,1495.199z"/>
				<path style="fill:#FFFFFF;" d="M1776.982,1707.384H1572c-8.575,0-15.526,5.364-15.526,11.98c0,6.617,6.951,11.98,15.526,11.98
					h204.982c8.575,0,15.526-5.364,15.526-11.98C1792.509,1712.748,1785.557,1707.384,1776.982,1707.384z"/>
				<path style="fill:#FFFFFF;" d="M1776.982,1654.338H1572c-8.575,0-15.526,5.364-15.526,11.98c0,6.616,6.951,11.98,15.526,11.98
					h204.982c8.575,0,15.526-5.364,15.526-11.98C1792.509,1659.702,1785.557,1654.338,1776.982,1654.338z"/>
				<path style="fill:#FFFFFF;" d="M1776.982,1601.292H1572c-8.575,0-15.526,5.364-15.526,11.98c0,6.616,6.951,11.98,15.526,11.98
					h204.982c8.575,0,15.526-5.364,15.526-11.98C1792.509,1606.655,1785.557,1601.292,1776.982,1601.292z"/>
			</g>
		</g>
		<g>
			<g>
				
					<linearGradient id="SVGID_00000120552411594093618800000014082157190124671632_" gradientUnits="userSpaceOnUse" x1="1661.068" y1="2669.8257" x2="2098.7634" y2="2669.8257">
					<stop  offset="0" style="stop-color:#A22B25"/>
					<stop  offset="1" style="stop-color:#C0423C"/>
				</linearGradient>
				<path style="fill:url(#SVGID_00000120552411594093618800000014082157190124671632_);" d="M1687.798,2683.948
					c0,0-22.684-59.714-49.18-54.245c-26.496,5.469-55.483,25.825-55.483,25.825l-42.566,57.567c0,0,119.491,47.073,161.517,20.095
					c0,0,122.051,21.089,276.179-4.201c-22.311-47.104-35.609-94.264-43.418-130.87
					C1856.782,2642.305,1772.701,2675.311,1687.798,2683.948z"/>
				
					<linearGradient id="SVGID_00000163040457845419779270000001732611884562013089_" gradientUnits="userSpaceOnUse" x1="2916.3796" y1="3486.3242" x2="2119.8257" y2="2442.1011">
					<stop  offset="0" style="stop-color:#FF928E"/>
					<stop  offset="1" style="stop-color:#FE7062"/>
				</linearGradient>
				<path style="fill:url(#SVGID_00000163040457845419779270000001732611884562013089_);" d="M2334.316,2250.818
					c0,0-174.746,220.097-399.47,347.301c7.809,36.606,21.106,83.766,43.418,130.87c116.577-19.129,251.496-64.781,365.877-166.223
					L2334.316,2250.818z"/>
			</g>
			
				<linearGradient id="SVGID_00000065050350315176659450000015045059823303403663_" gradientUnits="userSpaceOnUse" x1="1231.0244" y1="2277.9631" x2="1001.7479" y2="2511.9185">
				<stop  offset="0" style="stop-color:#4F52FF"/>
				<stop  offset="1" style="stop-color:#4042E2"/>
			</linearGradient>
			<path style="fill:url(#SVGID_00000065050350315176659450000015045059823303403663_);" d="M1024.608,2279.923l10.849,291.372
				c30.815,10.605,60.151,18.853,88.087,25.012c17.474-56.257,55.951-125.305,87.458-176.645
				C1095.243,2378.741,1024.608,2279.923,1024.608,2279.923z"/>
			
				<linearGradient id="SVGID_00000118377772061189633790000016886054702510744481_" gradientUnits="userSpaceOnUse" x1="1812.1926" y1="2250.4841" x2="1125.5297" y2="2592.0608">
				<stop  offset="0" style="stop-color:#FEBBBA"/>
				<stop  offset="1" style="stop-color:#FF928E"/>
			</linearGradient>
			<path style="fill:url(#SVGID_00000118377772061189633790000016886054702510744481_);" d="M1602.552,2274.966
				c-158.794,171.447-287.322,181.539-391.55,144.695c-31.507,51.339-69.984,120.387-87.458,176.645
				c424.056,93.49,523.913-296.35,523.913-296.35L1602.552,2274.966z"/>
			
				<linearGradient id="SVGID_00000023269207274049115420000015780055154206667690_" gradientUnits="userSpaceOnUse" x1="1802.1404" y1="2164.8149" x2="1700.8667" y2="2270.5898">
				<stop  offset="0" style="stop-color:#FEBBBA"/>
				<stop  offset="1" style="stop-color:#FF928E"/>
			</linearGradient>
			<path style="fill:url(#SVGID_00000023269207274049115420000015780055154206667690_);" d="M1634.756,2256.756
				c0,0,18.292-19.643,52.145-13.47c33.854,6.172,63.988,17.934,85.081,0c21.094-17.935,28.509,6.135,28.509,6.135l-63.162,48.016
				L1634.756,2256.756z"/>
			
				<linearGradient id="SVGID_00000048494693413876610360000017647224947826187652_" gradientUnits="userSpaceOnUse" x1="1815.4567" y1="2246.4358" x2="1128.7958" y2="2588.0115">
				<stop  offset="0" style="stop-color:#FEBBBA"/>
				<stop  offset="1" style="stop-color:#FF928E"/>
			</linearGradient>
			<path style="fill:url(#SVGID_00000048494693413876610360000017647224947826187652_);" d="M1596.978,2290.335
				c0,0,12.535-52.407,50.305-45.224c37.77,7.183,123.518,53.814,145.616,45.224c22.098-8.59,50.355-29.151,64.854-21.884
				l-25.536,31.748c0,0,65.647-37.871,76.948-14.603l-109.234,61.47C1799.93,2347.067,1640.117,2331.068,1596.978,2290.335z"/>
			
				<linearGradient id="SVGID_00000109708160781033334960000012622039993358389139_" gradientUnits="userSpaceOnUse" x1="1276.4336" y1="2110.6655" x2="55.2475" y2="3721.3687">
				<stop  offset="0" style="stop-color:#4F52FF"/>
				<stop  offset="1" style="stop-color:#4042E2"/>
			</linearGradient>
			<path style="fill:url(#SVGID_00000109708160781033334960000012622039993358389139_);" d="M474.898,3240.222
				c0,0-54.182-773.534,340.805-1014.064c0,0,110.428-72.903,248.029,68.281c137.601,141.184,93.288,287.861-22.187,425.325
				c-115.475,137.464-233.091,383.015-205.101,520.458H474.898z"/>
			
				<linearGradient id="SVGID_00000075151000397619915430000006475033517757695380_" gradientUnits="userSpaceOnUse" x1="925.4084" y1="2357.1448" x2="1016.6511" y2="2107.9822">
				<stop  offset="0" style="stop-color:#FEBBBA"/>
				<stop  offset="1" style="stop-color:#FF928E"/>
			</linearGradient>
			<path style="fill:url(#SVGID_00000075151000397619915430000006475033517757695380_);" d="M1014.772,2015.459
				c-0.104,9.224-131.633,196.045-131.633,196.045s23.608,46.497,136.316,84.247l97.289-200.03L1014.772,2015.459z"/>
			
				<linearGradient id="SVGID_00000034088424792792903670000000288898481782814081_" gradientUnits="userSpaceOnUse" x1="1366.0751" y1="2679.615" x2="1047.8951" y2="2913.5706">
				<stop  offset="0" style="stop-color:#FEBBBA"/>
				<stop  offset="1" style="stop-color:#FF928E"/>
			</linearGradient>
			<path style="fill:url(#SVGID_00000034088424792792903670000000288898481782814081_);" d="M963.046,2656.882
				c0,0,249.545,208.995,519.012,117.801c16.713-5.656,34.988-4.428,50.59,3.812l77.47,40.915
				c32.516,17.172,72.785,5.899,91.652-25.663c10.762-18.003,19.947-38.566,21.775-58.265l-151.585-61.366l11.175-18.587
				c0,0-74.01-6.271-93.381,46.772c0,0-140.97,58.635-378.705-202.855C1111.048,2499.444,1003.167,2591.175,963.046,2656.882z"/>
			
				<linearGradient id="SVGID_00000022561326661263025560000014434392455136117939_" gradientUnits="userSpaceOnUse" x1="1415.5645" y1="1624.6272" x2="1248.2211" y2="1912.458">
				<stop  offset="0" style="stop-color:#4F52FF"/>
				<stop  offset="1" style="stop-color:#4042E2"/>
			</linearGradient>
			<path style="fill:url(#SVGID_00000022561326661263025560000014434392455136117939_);" d="M949.616,2655.969
				c-1.064,0-2.139-0.305-3.088-0.947c-105.379-71.2-154.953-186.127-155.442-187.279c-1.19-2.807,0.122-6.046,2.926-7.238
				c2.807-1.19,6.049,0.121,7.24,2.926c0.478,1.123,48.865,113.124,151.458,182.442c2.527,1.706,3.192,5.138,1.484,7.666
				C953.128,2655.117,951.388,2655.969,949.616,2655.969z"/>
			
				<linearGradient id="SVGID_00000164499773871559519210000017851941798976961465_" gradientUnits="userSpaceOnUse" x1="1413.9432" y1="1623.6827" x2="1246.5999" y2="1911.5135">
				<stop  offset="0" style="stop-color:#4F52FF"/>
				<stop  offset="1" style="stop-color:#4042E2"/>
			</linearGradient>
			<path style="fill:url(#SVGID_00000164499773871559519210000017851941798976961465_);" d="M1106.122,2497.15
				c-1.811,0-3.587-0.892-4.644-2.531c-0.316-0.492-32.438-50.499-93.6-160.014c-18.627-33.351-43.071-54.464-72.661-62.749
				c-49.07-13.737-96.404,12.599-96.878,12.867c-2.649,1.502-6.017,0.573-7.523-2.076c-1.506-2.649-0.579-6.018,2.067-7.523
				c2.089-1.185,51.658-28.86,105.21-13.931c32.571,9.089,59.293,31.976,79.427,68.028c60.961,109.156,92.924,158.927,93.24,159.417
				c1.654,2.563,0.913,5.979-1.65,7.631C1108.185,2496.866,1107.146,2497.15,1106.122,2497.15z"/>
			<g>
				
					<linearGradient id="SVGID_00000068672966218571761770000009525507747703250616_" gradientUnits="userSpaceOnUse" x1="1128.1393" y1="2003.0389" x2="860.5961" y2="2207.7502">
					<stop  offset="0" style="stop-color:#FEBBBA"/>
					<stop  offset="1" style="stop-color:#FF928E"/>
				</linearGradient>
				<path style="fill:url(#SVGID_00000068672966218571761770000009525507747703250616_);" d="M1118.329,1908.408
					c0,0,46.801,107.508,49.943,163.936c3.143,56.428,15.302,93.042-49.943,104.405c-65.245,11.363-120.209-21.14-149.986-77.348
					c0,0-46.654-86.611-36.189-122.081C942.621,1941.851,1118.329,1908.408,1118.329,1908.408z"/>
				
					<linearGradient id="SVGID_00000120559561846567920060000002922923553921036718_" gradientUnits="userSpaceOnUse" x1="939.8005" y1="1840.9521" x2="1188.975" y2="2161.7637">
					<stop  offset="0" style="stop-color:#09005D"/>
					<stop  offset="1" style="stop-color:#1A0F91"/>
				</linearGradient>
				<path style="fill:url(#SVGID_00000120559561846567920060000002922923553921036718_);" d="M990.639,2058.988l3.714-1.637
					c4.728-2.084,6.751-7.713,4.376-12.302c-9.2-17.777-27.136-58.513-3.966-68.016c29.861-12.247,148.146-36.368,173.666-78.339
					c24.527-40.338,2.795-92.408-29.866-107.218c-2.186-0.991-4.762-0.205-5.884,1.917l-2.722,5.15
					c-1.863,3.526-7.07,2.991-8.179-0.839l0,0c-1.064-3.677-5.955-4.391-7.983-1.144c-7.845,12.557-29.023,32.913-85.66,43.366
					c-80.491,14.856-133.708,47.429-135.032,103.049c-0.084,3.534-3.843,5.499-6.862,3.659c-5.943-3.622-15.454-5.321-28.165,5.366
					c-22.105,18.587-13.059,66.804,35.4,106.466c2.302,1.884,2.283,5.478-0.21,7.101c-8.786,5.719-21.882,19.326,12.052,37.466
					c35.099,18.763,61.31,17.224,71.402,15.558c2.511-0.414,4.129-2.845,3.581-5.33l-10.772-48.885
					c-0.61-2.767,1.496-5.388,4.33-5.388H990.639z"/>
				
					<linearGradient id="SVGID_00000024694655121965017740000000635375679934171301_" gradientUnits="userSpaceOnUse" x1="1094.9534" y1="1959.6676" x2="827.4106" y2="2164.3787">
					<stop  offset="0" style="stop-color:#FEBBBA"/>
					<stop  offset="1" style="stop-color:#FF928E"/>
				</linearGradient>
				<path style="fill:url(#SVGID_00000024694655121965017740000000635375679934171301_);" d="M992.665,2069.304
					c0,0-17.854-68.674-48.644-49.419c-30.79,19.255,15.978,76.947,40.732,79.517L992.665,2069.304z"/>
			</g>
			
				<linearGradient id="SVGID_00000098180257403887847340000000462208436731686279_" gradientUnits="userSpaceOnUse" x1="1532.6477" y1="2780.4932" x2="1640.5074" y2="2780.4932">
				<stop  offset="0" style="stop-color:#A22B25"/>
				<stop  offset="1" style="stop-color:#C0423C"/>
			</linearGradient>
			<path style="fill:url(#SVGID_00000098180257403887847340000000462208436731686279_);" d="M1532.648,2778.495
				c0,0,63.414,62.029,75.651,52.997c4.354-3.213,15.346-14.881,26-27.876c7.517-9.17,8.298-22.125,1.85-32.076l-14.956-23.079
				c-14.251-21.991-44.767-26.604-64.534-9.4C1546.689,2747.738,1537.639,2760.304,1532.648,2778.495z"/>
			
				<linearGradient id="SVGID_00000132804249519664376120000014129663947011137946_" gradientUnits="userSpaceOnUse" x1="3122.2366" y1="3329.2915" x2="2325.6848" y2="2285.071">
				<stop  offset="0" style="stop-color:#FF928E"/>
				<stop  offset="1" style="stop-color:#FE7062"/>
			</linearGradient>
			<path style="fill:url(#SVGID_00000132804249519664376120000014129663947011137946_);" d="M2539.288,3240.222
				c0,0-7.782-290.083-169.816-577.863c-50.684-90.018-68.71-194.792-52.905-296.882l17.75-114.659
				c0,0,222.377-75.248,468.875-3.169c0,0,341.789,271.04,113.362,992.573H2539.288z"/>
			
				<linearGradient id="SVGID_00000070813213555598992170000016843530885910502306_" gradientUnits="userSpaceOnUse" x1="2519.9092" y1="2232.0413" x2="2449.7224" y2="2021.4806">
				<stop  offset="0" style="stop-color:#A22B25"/>
				<stop  offset="1" style="stop-color:#C0423C"/>
			</linearGradient>
			<path style="fill:url(#SVGID_00000070813213555598992170000016843530885910502306_);" d="M2372.171,2104.483l57.662,138.529
				c3.642,8.749,11.514,14.985,20.855,16.587c33.246,5.701,113.654,14.607,166.459-20.115c6.292-4.138,7.894-12.691,3.59-18.87
				l-106.531-152.944L2372.171,2104.483z"/>
			<g>
				<path style="fill:#7D97F4;" d="M2514.389,2755.507c-7.942,2.094-11.886,11.018-8.088,18.301l166.819,319.871
					c2.817,5.402,9.051,8.07,14.904,6.38l545.676-157.55c6.794-1.961,10.711-9.06,8.749-15.854l-93.996-325.399
					c-1.93-6.681-8.84-10.6-15.565-8.827L2514.389,2755.507z"/>
				<path style="fill:#BDD0FB;" d="M2549.59,2717.92c-7.813,1.861-12.246,10.13-9.471,17.667l133.534,362.736
					c2.428,6.597,9.541,10.197,16.295,8.246l544.029-157.074c6.77-1.955,10.87-8.818,9.383-15.705l-75.394-349.114
					c-1.586-7.344-8.897-11.949-16.206-10.208L2549.59,2717.92z"/>
				
					<linearGradient id="SVGID_00000176757647907317591410000009945807218543566988_" gradientUnits="userSpaceOnUse" x1="2902.5549" y1="2770.6265" x2="3052.2866" y2="3442.0774">
					<stop  offset="0" style="stop-color:#4F52FF"/>
					<stop  offset="1" style="stop-color:#4042E2"/>
				</linearGradient>
				<path style="fill:url(#SVGID_00000176757647907317591410000009945807218543566988_);" d="M2596.969,2681.306
					c-9.539,1.451-15.824,10.714-13.647,20.114l90.696,391.585c2.143,9.251,11.609,14.811,20.732,12.177l535.787-154.695
					c8.611-2.486,13.682-11.37,11.445-20.049l-82.397-319.641c-2.122-8.23-10.128-13.52-18.531-12.241L2596.969,2681.306z"/>
			</g>
			
				<linearGradient id="SVGID_00000010312928619854198560000010935141911434741391_" gradientUnits="userSpaceOnUse" x1="3333.4468" y1="3168.1755" x2="2536.8933" y2="2123.9529">
				<stop  offset="0" style="stop-color:#FF928E"/>
				<stop  offset="1" style="stop-color:#FE7062"/>
			</linearGradient>
			<path style="fill:url(#SVGID_00000010312928619854198560000010935141911434741391_);" d="M3030.685,2830.637
				c41.585-314.129-200.493-555.671-200.493-555.671l-144.03,167.909c109.35,136.3,161.33,261.197,185.075,359.293
				C2902.725,2792.998,2978.543,2778.51,3030.685,2830.637z"/>
			
				<linearGradient id="SVGID_00000125575606039854035250000014996992652492716958_" gradientUnits="userSpaceOnUse" x1="3131.0261" y1="2071.2336" x2="2704.3218" y2="2738.8994">
				<stop  offset="0" style="stop-color:#E1473D"/>
				<stop  offset="1" style="stop-color:#E9605A"/>
			</linearGradient>
			<path style="fill:url(#SVGID_00000125575606039854035250000014996992652492716958_);" d="M2871.234,2805.849
				c-1.661,0-3.167-1.13-3.573-2.814c-29.454-121.678-91.486-242.077-184.371-357.855c-1.272-1.587-1.017-3.904,0.568-5.175
				c1.589-1.274,3.904-1.015,5.176,0.566c93.564,116.629,156.07,237.995,185.78,360.731c0.478,1.975-0.733,3.965-2.71,4.445
				C2871.813,2805.817,2871.521,2805.849,2871.234,2805.849z"/>
			
				<linearGradient id="SVGID_00000161629097493994810910000012461983786693180346_" gradientUnits="userSpaceOnUse" x1="2906.9277" y1="2685.1367" x2="2997.302" y2="1831.6014">
				<stop  offset="0" style="stop-color:#A22B25"/>
				<stop  offset="1" style="stop-color:#C0423C"/>
			</linearGradient>
			<path style="fill:url(#SVGID_00000161629097493994810910000012461983786693180346_);" d="M2871.236,2802.169
				c22.069,91.175,19.749,159.2,16.392,191.678c-1.266,12.244-11.107,21.805-23.386,22.664c-13.95,0.977-32.934,2.258-49.899,3.235
				c-18.648,1.074-39.345-10.712-53.188-20.563c-7.067-5.029-16.207,2.802-12.26,10.525c10.329,20.213,36.548,38.201,54.619,48.783
				c6.573,3.85,5.341,13.677-1.988,15.753l-77.281,21.906c126.981,119.628,210.819-14.222,210.819-14.222
				c56.053-86.611,85.033-171.305,95.621-251.292C2978.543,2778.51,2902.725,2792.998,2871.236,2802.169z"/>
			<g>
				
					<linearGradient id="SVGID_00000050630125868233465290000013138921684552856207_" gradientUnits="userSpaceOnUse" x1="3690.3809" y1="4811.4409" x2="3438.1033" y2="5145.1836" gradientTransform="matrix(-0.6854 -0.7281 -0.7281 0.6854 8497.2715 1318.7853)">
					<stop  offset="0" style="stop-color:#A22B25"/>
					<stop  offset="1" style="stop-color:#C0423C"/>
				</linearGradient>
				<path style="fill:url(#SVGID_00000050630125868233465290000013138921684552856207_);" d="M2431.804,1892.534
					c-2.422,2.28-102.205,198.23-102.205,198.23l113.095,54.596l122.166-171.67
					C2564.861,1973.691,2472.346,1854.37,2431.804,1892.534z"/>
				
					<linearGradient id="SVGID_00000047763797190115241580000009129195483795278464_" gradientUnits="userSpaceOnUse" x1="3497.7122" y1="4891.5894" x2="3799.0615" y2="4891.5894" gradientTransform="matrix(-0.6854 -0.7281 -0.7281 0.6854 8497.2715 1318.7853)">
					<stop  offset="0" style="stop-color:#09005D"/>
					<stop  offset="1" style="stop-color:#1A0F91"/>
				</linearGradient>
				<path style="fill:url(#SVGID_00000047763797190115241580000009129195483795278464_);" d="M2513.465,1994.289l-56.406,94.027
					c-0.856,1.427-1.875,2.717-3.093,3.851c-6.714,6.25-29.688,24.428-47.449-0.322c-15.138-21.094-29.341-40.272-44.56-48.181
					c-8.887-4.619-19.824-0.93-24.336,8.012c-9.293,18.42-27.295,55.966-38.604,91.571c-2.834,8.924,1.772,18.505,10.45,22.021
					c22.901,9.278,68.161,26.057,108.324,31.6c6.597,0.911,13.13-1.873,17.056-7.252c17.279-23.672,65.982-89.826,82.604-106.384
					c15.443-15.384,43.944-9.583,56.787-5.893c4.875,1.401,10.066,0.726,14.411-1.891c13.03-7.848,35.769-27.392,14.967-60.482
					c-5.172-8.227-2.534-19.185,5.584-24.526c14.548-9.57,30.334-27.533,15.294-56.621c-15.225-29.447-42.414-32.091-60.931-29.828
					c-8.193,1.001-16.511-3.296-19.655-10.928c-1.398-3.395-4.162-6.288-9.308-7.332c-9.705-1.969-16.076-10.845-14.171-20.563
					c3.266-16.664,0.807-38.311-25.8-52.94c-48.798-26.829-91.542,16.886-102.41,53.79c-10.868,36.903,43.691,62.983,78.011,67.336
					c25.209,3.197,39.031,30.71,44.593,45.092C2516.84,1983.664,2516.344,1989.49,2513.465,1994.289z"/>
				
					<linearGradient id="SVGID_00000129920869896565571620000005527387742659559099_" gradientUnits="userSpaceOnUse" x1="3320.894" y1="5075.7388" x2="3523.2407" y2="4868.1367" gradientTransform="matrix(-0.6854 -0.7281 -0.7281 0.6854 8497.2715 1318.7853)">
					<stop  offset="0" style="stop-color:#A22B25"/>
					<stop  offset="1" style="stop-color:#C0423C"/>
				</linearGradient>
				<path style="fill:url(#SVGID_00000129920869896565571620000005527387742659559099_);" d="M2496.266,2117.76
					c0,0,21.698-63.49,49.474-61.159c27.775,2.331,49.635,30,15.213,61.105C2518.136,2156.398,2496.266,2117.76,2496.266,2117.76z"
					/>
			</g>
		</g>
		<g>
			
				<linearGradient id="SVGID_00000065778049418470543190000000602937050695342983_" gradientUnits="userSpaceOnUse" x1="1765.5559" y1="2296.6431" x2="1765.5559" y2="2072.4031">
				<stop  offset="0" style="stop-color:#4F52FF"/>
				<stop  offset="1" style="stop-color:#4042E2"/>
			</linearGradient>
			<path style="fill:url(#SVGID_00000065778049418470543190000000602937050695342983_);" d="M1370.753,1934.428l8.35,259.707
				c1.457,45.286,38.62,81.324,84.141,81.592l621.913,3.666c30.424,0.179,56.343-21.927,60.785-51.885
				c9.725-65.585,22.115-182.934,8.163-293.08H1370.753z"/>
			<path style="fill:#FFFFFF;" d="M2072.288,2264.536c-0.993,0-1.816-0.786-1.852-1.787c-0.038-1.022,0.759-1.885,1.785-1.925
				c3.597-0.134,7.188-0.612,10.669-1.425c0.991-0.232,1.995,0.392,2.228,1.389c0.234,0.997-0.388,1.997-1.386,2.229
				c-3.712,0.863-7.538,1.374-11.373,1.519C2072.335,2264.536,2072.311,2264.536,2072.288,2264.536z M2046.309,2264.439
				c-0.003,0-0.007,0-0.011,0l-11.135-0.065c-1.026-0.007-1.85-0.841-1.845-1.866c0.005-1.022,0.836-1.845,1.856-1.845
				c0.004,0,0.007,0,0.011,0l11.135,0.065c1.025,0.007,1.85,0.841,1.845,1.867C2048.16,2263.616,2047.33,2264.439,2046.309,2264.439
				z M2009.193,2264.221c-0.003,0-0.007,0-0.011,0l-11.133-0.065c-1.026-0.008-1.85-0.841-1.845-1.867
				c0.006-1.022,0.835-1.845,1.856-1.845c0.004,0,0.007,0,0.011,0l11.133,0.065c1.026,0.007,1.85,0.841,1.845,1.867
				C2011.043,2263.398,2010.213,2264.221,2009.193,2264.221z M1972.078,2264c-0.003,0-0.007,0-0.011,0l-11.135-0.065
				c-1.026-0.007-1.85-0.841-1.845-1.867c0.006-1.022,0.835-1.845,1.856-1.845c0.004,0,0.007,0,0.011,0l11.135,0.065
				c1.026,0.008,1.85,0.841,1.845,1.867C1973.928,2263.177,1973.098,2264,1972.078,2264z M1934.961,2263.782
				c-0.003,0-0.007,0-0.011,0l-11.135-0.065c-1.026-0.007-1.85-0.841-1.845-1.867c0.005-1.026,0.995-1.856,1.867-1.845l11.135,0.065
				c1.026,0.008,1.85,0.841,1.845,1.867C1936.812,2262.96,1935.981,2263.782,1934.961,2263.782z M1897.844,2263.565
				c-0.003,0-0.007,0-0.011,0l-11.133-0.065c-1.026-0.007-1.85-0.841-1.845-1.867c0.005-1.022,0.835-1.845,1.856-1.845
				c0.004,0,0.008,0,0.011,0l11.133,0.065c1.026,0.007,1.85,0.841,1.845,1.866
				C1899.695,2262.742,1898.865,2263.565,1897.844,2263.565z M1860.729,2263.344c-0.004,0-0.007,0-0.011,0l-11.135-0.065
				c-1.026-0.007-1.85-0.841-1.845-1.867c0.005-1.022,0.835-1.845,1.856-1.845c0.004,0,0.007,0,0.011,0l11.135,0.065
				c1.026,0.008,1.851,0.841,1.845,1.867C1862.58,2262.521,1861.75,2263.344,1860.729,2263.344z M1823.613,2263.127
				c-0.004,0-0.007,0-0.011,0l-11.135-0.065c-1.026-0.007-1.85-0.841-1.845-1.867c0.005-1.022,0.835-1.845,1.856-1.845
				c0.004,0,0.007,0,0.011,0l11.135,0.065c1.026,0.007,1.851,0.841,1.845,1.866
				C1825.463,2262.304,1824.633,2263.127,1823.613,2263.127z M1786.498,2262.909c-0.004,0-0.007,0-0.011,0l-11.135-0.065
				c-1.026-0.008-1.851-0.841-1.845-1.867c0.006-1.022,0.836-1.845,1.856-1.845c0.004,0,0.007,0,0.011,0l11.135,0.065
				c1.026,0.007,1.851,0.841,1.845,1.867C1788.348,2262.086,1787.518,2262.909,1786.498,2262.909z M1749.381,2262.688
				c-0.004,0-0.007,0-0.011,0l-11.135-0.065c-1.026-0.007-1.851-0.841-1.845-1.866c0.005-1.022,0.836-1.845,1.856-1.845
				c0.004,0,0.007,0,0.011,0l11.135,0.065c1.026,0.007,1.851,0.841,1.845,1.867
				C1751.231,2261.865,1750.401,2262.688,1749.381,2262.688z M1712.264,2262.47c-0.004,0-0.007,0-0.011,0l-11.135-0.065
				c-1.026-0.007-1.851-0.841-1.845-1.866c0.005-1.022,0.835-1.845,1.856-1.845c0.004,0,0.007,0,0.011,0l11.135,0.065
				c1.026,0.007,1.851,0.841,1.845,1.867C1714.115,2261.648,1713.285,2262.47,1712.264,2262.47z M1675.15,2262.253
				c-0.004,0-0.007,0-0.011,0l-11.135-0.065c-1.026-0.007-1.851-0.841-1.845-1.866c0.005-1.022,0.835-1.845,1.856-1.845
				c0.004,0,0.007,0,0.011,0l11.135,0.065c1.026,0.007,1.851,0.841,1.845,1.867C1677,2261.43,1676.17,2262.253,1675.15,2262.253z
				 M1638.033,2262.032c-0.004,0-0.007,0-0.011,0l-11.135-0.065c-1.026-0.007-1.851-0.841-1.845-1.867
				c0.006-1.022,0.836-1.845,1.856-1.845c0.004,0,0.007,0,0.011,0l11.135,0.065c1.026,0.007,1.851,0.841,1.845,1.867
				C1639.883,2261.209,1639.053,2262.032,1638.033,2262.032z M1600.916,2261.814c-0.004,0-0.007,0-0.011,0l-11.135-0.065
				c-1.026-0.007-1.851-0.841-1.845-1.867c0.006-1.022,0.836-1.845,1.856-1.845c0.004,0,0.007,0,0.011,0l11.135,0.065
				c1.026,0.008,1.851,0.841,1.845,1.867C1602.766,2260.992,1601.936,2261.814,1600.916,2261.814z M1563.801,2261.597
				c-0.004,0-0.007,0-0.011,0l-11.135-0.065c-1.026-0.007-1.851-0.841-1.845-1.867c0.005-1.025,0.968-1.718,1.867-1.845
				l11.135,0.065c1.026,0.008,1.85,0.841,1.845,1.867C1565.651,2260.774,1564.822,2261.597,1563.801,2261.597z M1526.684,2261.376
				c-0.004,0-0.007,0-0.011,0l-11.135-0.065c-1.026-0.008-1.851-0.841-1.845-1.866c0.005-1.022,0.835-1.845,1.856-1.845
				c0.004,0,0.007,0,0.011,0l11.135,0.065c1.026,0.007,1.85,0.841,1.845,1.866
				C1528.535,2260.553,1527.705,2261.376,1526.684,2261.376z M1489.568,2261.158c-0.004,0-0.007,0-0.011,0l-11.135-0.065
				c-1.026-0.007-1.851-0.841-1.845-1.866c0.005-1.022,0.835-1.845,1.856-1.845c0.004,0,0.007,0,0.011,0l11.135,0.065
				c1.026,0.007,1.85,0.841,1.845,1.866C1491.418,2260.335,1490.588,2261.158,1489.568,2261.158z M1452.893,2257.012
				c-0.192,0-0.39-0.029-0.582-0.094c-3.579-1.182-7.123-2.632-10.531-4.313c-0.919-0.453-1.298-1.566-0.845-2.483
				c0.455-0.917,1.564-1.294,2.487-0.844c3.253,1.602,6.637,2.987,10.053,4.118c0.973,0.323,1.502,1.37,1.18,2.345
				C1454.397,2256.519,1453.673,2257.012,1452.893,2257.012z M2106.49,2251.821c-0.546,0-1.084-0.24-1.45-0.696
				c-0.642-0.802-0.511-1.969,0.288-2.61c2.809-2.247,5.406-4.77,7.722-7.492c0.661-0.783,1.829-0.881,2.615-0.214
				c0.781,0.663,0.877,1.834,0.212,2.617c-2.468,2.904-5.238,5.593-8.23,7.989
				C2107.305,2251.687,2106.896,2251.821,2106.49,2251.821z M1421.541,2237.797c-0.471,0-0.944-0.177-1.305-0.536
				c-2.701-2.671-5.232-5.546-7.525-8.543c-0.623-0.812-0.467-1.979,0.346-2.602c0.814-0.62,1.983-0.468,2.601,0.348
				c2.191,2.86,4.609,5.607,7.188,8.159c0.729,0.721,0.736,1.895,0.014,2.624C1422.499,2237.612,1422.02,2237.797,1421.541,2237.797
				z M2126.341,2221.225c-0.154,0-0.312-0.018-0.468-0.058c-0.991-0.257-1.588-1.272-1.33-2.262
				c0.495-1.914,0.894-3.875,1.182-5.832l0.723-4.926c0.146-1.015,1.069-1.729,2.102-1.573c1.015,0.149,1.718,1.091,1.569,2.102
				l-0.723,4.941c-0.308,2.084-0.732,4.176-1.261,6.216C2127.919,2220.671,2127.165,2221.225,2126.341,2221.225z M1401.988,2206.632
				c-0.772,0-1.494-0.486-1.756-1.258c-1.22-3.57-2.197-7.275-2.905-11.005c-0.192-1.007,0.469-1.979,1.477-2.171
				c1-0.185,1.979,0.471,2.169,1.475c0.676,3.563,1.609,7.097,2.771,10.504c0.332,0.968-0.187,2.022-1.156,2.356
				C1402.389,2206.6,1402.188,2206.632,1401.988,2206.632z M2131.74,2184.511c-0.076,0-0.152-0.004-0.23-0.015
				c-1.017-0.127-1.74-1.051-1.613-2.07c0.444-3.592,0.886-7.271,1.323-11.041c0.118-1.019,1.049-1.747,2.057-1.631
				c1.019,0.12,1.747,1.041,1.629,2.059c-0.437,3.777-0.879,7.47-1.327,11.07C2133.463,2183.822,2132.664,2184.511,2131.74,2184.511
				z M1397.347,2170.001c-0.997,0-1.821-0.79-1.852-1.798l-0.359-11.131c-0.034-1.022,0.77-1.881,1.794-1.914
				c0.939-0.047,1.881,0.768,1.914,1.798l0.359,11.131c0.034,1.022-0.77,1.881-1.794,1.914
				C1397.388,2170.001,1397.369,2170.001,1397.347,2170.001z M2135.795,2147.612c-0.058,0-0.117-0.004-0.177-0.007
				c-1.02-0.098-1.769-1.004-1.671-2.026c0.346-3.635,0.685-7.329,1.011-11.073c0.089-1.022,0.975-1.721,2.01-1.689
				c1.02,0.087,1.776,0.99,1.688,2.008c-0.326,3.759-0.665,7.459-1.015,11.109
				C2137.55,2146.894,2136.742,2147.612,2135.795,2147.612z M1396.152,2132.903c-0.997,0-1.821-0.794-1.852-1.798l-0.357-11.128
				c-0.035-1.022,0.77-1.881,1.794-1.914c1.004-0.014,1.881,0.772,1.914,1.798l0.357,11.128c0.035,1.022-0.77,1.881-1.794,1.914
				C1396.194,2132.903,1396.174,2132.903,1396.152,2132.903z M2138.793,2110.611c-0.042,0-0.083,0-0.125-0.003
				c-1.022-0.069-1.796-0.954-1.729-1.976c0.243-3.661,0.471-7.362,0.681-11.099c0.056-1.022,0.937-1.834,1.956-1.747
				c1.024,0.058,1.807,0.932,1.749,1.957c-0.21,3.744-0.439,7.46-0.681,11.135
				C2140.578,2109.857,2139.763,2110.611,2138.793,2110.611z M1394.96,2095.804c-0.997,0-1.821-0.794-1.852-1.798l-0.357-11.127
				c-0.035-1.022,0.77-1.881,1.794-1.914c0.995-0.073,1.883,0.776,1.914,1.798l0.357,11.127c0.035,1.022-0.77,1.882-1.794,1.914
				C1395.002,2095.804,1394.98,2095.804,1394.96,2095.804z M2140.658,2073.537c-0.022,0-0.043,0-0.065,0
				c-1.024-0.036-1.827-0.895-1.791-1.917c0.123-3.683,0.232-7.387,0.321-11.113c0.025-1.029,1.01-1.776,1.899-1.812
				c1.026,0.026,1.836,0.874,1.813,1.899c-0.089,3.741-0.198,7.46-0.324,11.15
				C2142.478,2072.748,2141.653,2073.537,2140.658,2073.537z M1393.767,2058.709c-0.997,0-1.821-0.794-1.852-1.798l-0.357-11.132
				c-0.035-1.022,0.77-1.881,1.794-1.914c0.986,0.055,1.883,0.776,1.914,1.798l0.357,11.131c0.035,1.022-0.77,1.881-1.794,1.914
				C1393.809,2058.709,1393.787,2058.709,1393.767,2058.709z M2141.28,2036.421c-1.024,0-1.854-0.83-1.856-1.852
				c-0.006-3.69-0.031-7.394-0.078-11.117c-0.013-1.022,0.808-1.863,1.832-1.878c0.91,0.011,1.865,0.805,1.88,1.834
				c0.047,3.73,0.072,7.449,0.078,11.153c0.001,1.026-0.828,1.859-1.854,1.859H2141.28z M1392.575,2021.61
				c-0.997,0-1.821-0.79-1.852-1.798l-0.359-11.131c-0.034-1.022,0.771-1.881,1.794-1.914c0.872-0.022,1.883,0.765,1.914,1.798
				l0.359,11.131c0.035,1.022-0.77,1.881-1.794,1.914C1392.617,2021.61,1392.597,2021.61,1392.575,2021.61z M2140.497,1999.319
				c-0.99,0-1.81-0.779-1.852-1.78c-0.154-3.694-0.332-7.394-0.534-11.095c-0.058-1.022,0.727-1.899,1.75-1.954
				c1.015-0.087,1.896,0.725,1.954,1.751c0.207,3.715,0.384,7.431,0.538,11.146c0.043,1.022-0.752,1.889-1.776,1.932
				C2140.549,1999.319,2140.524,1999.319,2140.497,1999.319z M1391.382,1984.512c-0.997,0-1.822-0.79-1.852-1.798l-0.359-11.128
				c-0.035-1.022,0.77-1.881,1.794-1.914c0.875-0.105,1.883,0.768,1.914,1.798l0.359,11.124c0.034,1.026-0.771,1.885-1.794,1.917
				C1391.424,1984.512,1391.404,1984.512,1391.382,1984.512z M2138.112,1962.278c-0.951,0-1.761-0.725-1.847-1.693
				c-0.328-3.686-0.681-7.376-1.063-11.055c-0.107-1.019,0.632-1.932,1.653-2.037c1.021-0.102,1.932,0.634,2.039,1.653
				c0.384,3.701,0.741,7.405,1.069,11.113c0.091,1.018-0.663,1.921-1.684,2.012
				C2138.222,1962.275,2138.166,1962.278,2138.112,1962.278z M1390.188,1947.413c-0.997,0-1.821-0.794-1.852-1.798l-0.357-11.128
				c-0.034-1.022,0.77-1.881,1.794-1.914c0.881-0.011,1.881,0.769,1.914,1.798l0.357,11.128c0.035,1.022-0.77,1.881-1.794,1.914
				C1390.23,1947.413,1390.21,1947.413,1390.188,1947.413z M2124.354,1936.285h-11.135c-1.026,0-1.856-0.83-1.856-1.856
				c0-1.025,0.83-1.856,1.856-1.856h11.135c1.026,0,1.856,0.83,1.856,1.856C2126.21,1935.455,2125.38,1936.285,2124.354,1936.285z
				 M2087.238,1936.285h-11.135c-1.026,0-1.856-0.83-1.856-1.856c0-1.025,0.83-1.856,1.856-1.856h11.135
				c1.026,0,1.856,0.83,1.856,1.856C2089.094,1935.455,2088.263,1936.285,2087.238,1936.285z M2050.121,1936.285h-11.135
				c-1.026,0-1.856-0.83-1.856-1.856c0-1.025,0.83-1.856,1.856-1.856h11.135c1.026,0,1.856,0.83,1.856,1.856
				C2051.977,1935.455,2051.147,1936.285,2050.121,1936.285z M2013.004,1936.285h-11.135c-1.026,0-1.856-0.83-1.856-1.856
				c0-1.025,0.83-1.856,1.856-1.856h11.135c1.026,0,1.856,0.83,1.856,1.856C2014.86,1935.455,2014.03,1936.285,2013.004,1936.285z
				 M1975.887,1936.285h-11.135c-1.026,0-1.856-0.83-1.856-1.856c0-1.025,0.83-1.856,1.856-1.856h11.135
				c1.026,0,1.856,0.83,1.856,1.856C1977.743,1935.455,1976.913,1936.285,1975.887,1936.285z M1938.771,1936.285h-11.135
				c-1.026,0-1.856-0.83-1.856-1.856c0-1.025,0.83-1.856,1.856-1.856h11.135c1.026,0,1.856,0.83,1.856,1.856
				C1940.626,1935.455,1939.797,1936.285,1938.771,1936.285z M1901.654,1936.285h-11.135c-1.026,0-1.856-0.83-1.856-1.856
				c0-1.025,0.83-1.856,1.856-1.856h11.135c1.026,0,1.856,0.83,1.856,1.856C1903.51,1935.455,1902.68,1936.285,1901.654,1936.285z
				 M1864.537,1936.285h-11.135c-1.026,0-1.856-0.83-1.856-1.856c0-1.025,0.83-1.856,1.856-1.856h11.135
				c1.026,0,1.856,0.83,1.856,1.856C1866.393,1935.455,1865.563,1936.285,1864.537,1936.285z M1827.421,1936.285h-11.135
				c-1.026,0-1.856-0.83-1.856-1.856c0-1.025,0.83-1.856,1.856-1.856h11.135c1.026,0,1.856,0.83,1.856,1.856
				C1829.276,1935.455,1828.446,1936.285,1827.421,1936.285z M1790.304,1936.285h-11.135c-1.026,0-1.856-0.83-1.856-1.856
				c0-1.025,0.83-1.856,1.856-1.856h11.135c1.026,0,1.856,0.83,1.856,1.856C1792.16,1935.455,1791.33,1936.285,1790.304,1936.285z
				 M1753.187,1936.285h-11.135c-1.026,0-1.856-0.83-1.856-1.856c0-1.025,0.83-1.856,1.856-1.856h11.135
				c1.026,0,1.856,0.83,1.856,1.856C1755.043,1935.455,1754.213,1936.285,1753.187,1936.285z M1716.07,1936.285h-11.135
				c-1.026,0-1.856-0.83-1.856-1.856c0-1.025,0.83-1.856,1.856-1.856h11.135c1.026,0,1.856,0.83,1.856,1.856
				C1717.926,1935.455,1717.096,1936.285,1716.07,1936.285z M1678.954,1936.285h-11.135c-1.026,0-1.856-0.83-1.856-1.856
				c0-1.025,0.83-1.856,1.856-1.856h11.135c1.026,0,1.856,0.83,1.856,1.856C1680.809,1935.455,1679.979,1936.285,1678.954,1936.285z
				 M1641.837,1936.285h-11.135c-1.026,0-1.856-0.83-1.856-1.856c0-1.025,0.83-1.856,1.856-1.856h11.135
				c1.026,0,1.856,0.83,1.856,1.856C1643.693,1935.455,1642.863,1936.285,1641.837,1936.285z M1604.72,1936.285h-11.135
				c-1.026,0-1.856-0.83-1.856-1.856c0-1.025,0.83-1.856,1.856-1.856h11.135c1.026,0,1.856,0.83,1.856,1.856
				C1606.576,1935.455,1605.746,1936.285,1604.72,1936.285z M1567.604,1936.285h-11.135c-1.026,0-1.856-0.83-1.856-1.856
				c0-1.025,0.83-1.856,1.856-1.856h11.135c1.026,0,1.856,0.83,1.856,1.856C1569.459,1935.455,1568.629,1936.285,1567.604,1936.285z
				 M1530.487,1936.285h-11.135c-1.026,0-1.856-0.83-1.856-1.856c0-1.025,0.83-1.856,1.856-1.856h11.135
				c1.026,0,1.856,0.83,1.856,1.856C1532.343,1935.455,1531.513,1936.285,1530.487,1936.285z M1493.37,1936.285h-11.135
				c-1.026,0-1.856-0.83-1.856-1.856c0-1.025,0.83-1.856,1.856-1.856h11.135c1.026,0,1.856,0.83,1.856,1.856
				C1495.226,1935.455,1494.396,1936.285,1493.37,1936.285z M1456.253,1936.285h-11.135c-1.026,0-1.856-0.83-1.856-1.856
				c0-1.025,0.83-1.856,1.856-1.856h11.135c1.026,0,1.856,0.83,1.856,1.856C1458.109,1935.455,1457.279,1936.285,1456.253,1936.285z
				 M1419.137,1936.285h-11.135c-1.026,0-1.856-0.83-1.856-1.856c0-1.025,0.83-1.856,1.856-1.856h11.135
				c1.026,0,1.856,0.83,1.856,1.856C1420.992,1935.455,1420.162,1936.285,1419.137,1936.285z"/>
			
				<linearGradient id="SVGID_00000033349961627326343120000002798728806087307665_" gradientUnits="userSpaceOnUse" x1="1608.879" y1="1797.8302" x2="1604.311" y2="1687.0564">
				<stop  offset="0" style="stop-color:#4F52FF"/>
				<stop  offset="1" style="stop-color:#4042E2"/>
			</linearGradient>
			<path style="fill:url(#SVGID_00000033349961627326343120000002798728806087307665_);" d="M1553.015,1745.894l1.871-20.029
				c2.112-4.782,6.497-8.167,11.68-8.992c19.375-3.084,67.427-8.506,90.564,8.785l3.456,23.275L1553.015,1745.894z"/>
			
				<linearGradient id="SVGID_00000101080128191138208980000017771224566330512307_" gradientUnits="userSpaceOnUse" x1="1603.0958" y1="1631.5171" x2="1625.9358" y2="1948.9932">
				<stop  offset="0" style="stop-color:#4F52FF"/>
				<stop  offset="1" style="stop-color:#4042E2"/>
			</linearGradient>
			<path style="fill:url(#SVGID_00000101080128191138208980000017771224566330512307_);" d="M1613.539,1726.622
				c-4.461,1.088-8.93,1.084-13.407-0.016c-5.417-1.331-9.238-6.178-9.238-11.731l0-62.718h31.917l0.001,62.671
				C1622.812,1720.407,1618.983,1725.295,1613.539,1726.622z"/>
			
				<linearGradient id="SVGID_00000093170943141615503640000001451198631661772963_" gradientUnits="userSpaceOnUse" x1="1917.4969" y1="1785.1035" x2="1912.929" y2="1674.3297">
				<stop  offset="0" style="stop-color:#4F52FF"/>
				<stop  offset="1" style="stop-color:#4042E2"/>
			</linearGradient>
			<path style="fill:url(#SVGID_00000093170943141615503640000001451198631661772963_);" d="M1862.157,1745.894l1.871-20.029
				c2.112-4.782,6.497-8.167,11.679-8.992c19.376-3.084,67.427-8.506,90.564,8.785l3.457,23.275L1862.157,1745.894z"/>
			
				<linearGradient id="SVGID_00000134214614068083648840000009816029922495128746_" gradientUnits="userSpaceOnUse" x1="1910.8834" y1="1609.3743" x2="1933.7234" y2="1926.8499">
				<stop  offset="0" style="stop-color:#4F52FF"/>
				<stop  offset="1" style="stop-color:#4042E2"/>
			</linearGradient>
			<path style="fill:url(#SVGID_00000134214614068083648840000009816029922495128746_);" d="M1922.682,1726.622
				c-4.461,1.088-8.93,1.084-13.407-0.016c-5.417-1.331-9.238-6.178-9.238-11.731l0-69.326h31.917l0,69.279
				C1931.955,1720.407,1928.126,1725.295,1922.682,1726.622z"/>
			
				<linearGradient id="SVGID_00000072993253838981438040000007112882211011299229_" gradientUnits="userSpaceOnUse" x1="1784.1101" y1="1454.7733" x2="1753.2758" y2="1680.8905">
				<stop  offset="0" style="stop-color:#4F52FF"/>
				<stop  offset="1" style="stop-color:#4042E2"/>
			</linearGradient>
			<path style="fill:url(#SVGID_00000072993253838981438040000007112882211011299229_);" d="M1587.652,1667.531l343.25-11.362
				c7.826-0.259,14.466-5.905,15.81-13.583c1.88-10.745,3.538-26.832,1.066-43.509c-2.811-18.964-19.123-33.051-38.376-33.509
				c-64.034-1.524-227.047-1.478-316.891,34.062c-9.502,3.759-16.55,11.88-18.956,21.772c-2.295,9.434-3.819,22.032-0.822,34.855
				C1574.324,1663.07,1580.629,1667.764,1587.652,1667.531z"/>
			<path style="opacity:0.7;fill:#FFFFFF;" d="M1581.707,1651.893c-1.883,0-3.496-1.424-3.69-3.338
				c-0.056-0.562-1.345-13.857,2.12-26.663c2.754-10.174,10.799-18.352,20.998-21.345c19.222-5.64,55.965-15.228,86.075-16.076
				c2.063-0.051,3.757,1.562,3.813,3.607c0.058,2.052-1.557,3.759-3.607,3.817c-29.275,0.819-65.315,10.236-84.192,15.778
				c-7.737,2.269-13.838,8.46-15.922,16.159c-3.112,11.497-1.912,23.854-1.899,23.977c0.205,2.041-1.281,3.86-3.32,4.067
				C1581.957,1651.886,1581.83,1651.893,1581.707,1651.893z"/>
			
				<linearGradient id="SVGID_00000152245196645354889550000003284903099347164301_" gradientUnits="userSpaceOnUse" x1="1793.41" y1="1630.8706" x2="1680.3521" y2="2686.0793">
				<stop  offset="0" style="stop-color:#4F52FF"/>
				<stop  offset="1" style="stop-color:#4042E2"/>
			</linearGradient>
			<path style="fill:url(#SVGID_00000152245196645354889550000003284903099347164301_);" d="M1393.759,1738.091
				c110.893-1.418,590.61-6.458,729.957,10.354c11.998,1.448,21.788,10.225,24.387,21.973
				c8.234,37.224,24.799,123.698,22.836,209.415c-0.267,11.665-8.82,21.507-20.337,23.686l-318.083,60.176h-112.989l-338.922-67.369
				c-11.946-2.375-20.752-12.493-21.371-24.602c-2.203-43.124-5.647-144.31,6.016-209.441
				C1367.73,1748.444,1379.636,1738.272,1393.759,1738.091z"/>
			<path style="fill:#FFFFFF;" d="M1722.229,2038.143c-0.12,0-0.241-0.011-0.365-0.036l-10.921-2.171
				c-1.004-0.199-1.658-1.174-1.457-2.182c0.201-1,1.165-1.678,2.182-1.457l10.823,2.153c0.082-0.011,0.165-0.018,0.248-0.018
				h11.135c1.026,0,1.856,0.83,1.856,1.856c0,1.026-0.83,1.856-1.856,1.856h-11.135c-0.087,0-0.172-0.007-0.256-0.018
				C1722.401,2038.135,1722.316,2038.143,1722.229,2038.143z M1808.108,2038.143h-11.135c-1.026,0-1.856-0.83-1.856-1.856
				c0-1.026,0.83-1.856,1.856-1.856h11.135c1.025,0,1.856,0.83,1.856,1.856C1809.964,2037.313,1809.134,2038.143,1808.108,2038.143z
				 M1770.992,2038.143h-11.135c-1.026,0-1.856-0.83-1.856-1.856c0-1.026,0.83-1.856,1.856-1.856h11.135
				c1.025,0,1.856,0.83,1.856,1.856C1772.848,2037.313,1772.017,2038.143,1770.992,2038.143z M1834.016,2037.374
				c-0.876,0-1.653-0.62-1.822-1.511c-0.19-1.008,0.471-1.979,1.479-2.168l10.941-2.07c1.017-0.182,1.979,0.471,2.168,1.479
				c0.19,1.008-0.471,1.979-1.479,2.168l-10.941,2.07C1834.246,2037.364,1834.13,2037.374,1834.016,2037.374z M1685.824,2030.908
				c-0.12,0-0.241-0.011-0.364-0.036l-10.921-2.171c-1.004-0.199-1.658-1.178-1.457-2.182c0.199-1.001,1.158-1.656,2.182-1.457
				l10.921,2.171c1.004,0.199,1.658,1.174,1.457,2.182C1687.466,2030.295,1686.693,2030.908,1685.824,2030.908z M1870.485,2030.473
				c-0.875,0-1.653-0.62-1.821-1.511c-0.19-1.008,0.471-1.979,1.479-2.168l10.941-2.07c1.004-0.192,1.977,0.471,2.168,1.479
				c0.19,1.008-0.471,1.979-1.479,2.168l-10.941,2.07C1870.715,2030.462,1870.599,2030.473,1870.485,2030.473z M1649.42,2023.669
				c-0.12,0-0.241-0.011-0.364-0.036l-10.921-2.171c-1.004-0.199-1.658-1.174-1.457-2.182c0.199-1,1.167-1.664,2.182-1.457
				l10.921,2.171c1.004,0.199,1.659,1.174,1.457,2.182C1651.062,2023.057,1650.288,2023.669,1649.42,2023.669z M1906.955,2023.575
				c-0.875,0-1.653-0.62-1.821-1.511c-0.19-1.008,0.471-1.979,1.479-2.168l10.941-2.07c1.006-0.174,1.977,0.471,2.168,1.479
				c0.19,1.008-0.471,1.979-1.479,2.168l-10.941,2.07C1907.185,2023.564,1907.069,2023.575,1906.955,2023.575z M1943.425,2016.673
				c-0.875,0-1.653-0.62-1.821-1.511c-0.19-1.008,0.471-1.979,1.479-2.168l10.941-2.07c1.008-0.181,1.977,0.471,2.168,1.479
				c0.19,1.008-0.471,1.979-1.479,2.168l-10.941,2.07C1943.655,2016.663,1943.539,2016.673,1943.425,2016.673z M1613.016,2016.434
				c-0.12,0-0.241-0.011-0.365-0.036l-10.921-2.171c-1.004-0.2-1.658-1.174-1.457-2.182c0.201-1.004,1.16-1.671,2.182-1.457
				l10.921,2.171c1.004,0.2,1.658,1.178,1.457,2.182C1614.657,2015.822,1613.883,2016.434,1613.016,2016.434z M1979.895,2009.776
				c-0.876,0-1.653-0.62-1.821-1.511c-0.19-1.008,0.471-1.979,1.479-2.168l10.941-2.07c1.009-0.196,1.977,0.475,2.167,1.479
				c0.191,1.008-0.471,1.979-1.479,2.167l-10.941,2.07C1980.125,2009.765,1980.009,2009.776,1979.895,2009.776z M1576.611,2009.196
				c-0.12,0-0.241-0.011-0.363-0.036l-10.921-2.168c-1.006-0.199-1.658-1.174-1.459-2.182c0.198-1,1.183-1.678,2.18-1.457
				l10.921,2.168c1.006,0.199,1.66,1.174,1.459,2.182C1578.255,2008.583,1577.479,2009.196,1576.611,2009.196z M2016.364,2002.875
				c-0.876,0-1.653-0.62-1.822-1.512c-0.19-1.007,0.471-1.979,1.479-2.167l10.941-2.07c1.011-0.174,1.978,0.471,2.168,1.479
				c0.19,1.008-0.471,1.979-1.479,2.168l-10.941,2.07C2016.594,2002.864,2016.478,2002.875,2016.364,2002.875z M1540.207,2001.961
				c-0.12,0-0.241-0.011-0.365-0.036l-10.921-2.171c-1.004-0.199-1.658-1.174-1.457-2.182c0.201-1.001,1.162-1.656,2.182-1.457
				l10.921,2.171c1.004,0.199,1.658,1.174,1.457,2.182C1541.848,2001.348,1541.074,2001.961,1540.207,2001.961z M2052.834,1995.977
				c-0.875,0-1.653-0.62-1.822-1.512c-0.19-1.007,0.471-1.979,1.479-2.167l10.941-2.07c1.013-0.188,1.977,0.471,2.168,1.479
				c0.19,1.008-0.471,1.979-1.479,2.168l-10.941,2.07C2053.064,1995.966,2052.948,1995.977,2052.834,1995.977z M1503.802,1994.726
				c-0.12,0-0.241-0.011-0.364-0.036l-10.921-2.171c-1.004-0.199-1.658-1.174-1.457-2.182c0.2-1.004,1.171-1.664,2.182-1.457
				l10.921,2.171c1.004,0.199,1.658,1.178,1.457,2.182C1505.444,1994.114,1504.67,1994.726,1503.802,1994.726z M2089.303,1989.075
				c-0.875,0-1.653-0.62-1.821-1.511c-0.19-1.008,0.471-1.979,1.479-2.168l10.941-2.07c1.015-0.167,1.979,0.475,2.168,1.479
				c0.19,1.008-0.471,1.979-1.479,2.168l-10.941,2.07C2089.534,1989.065,2089.418,1989.075,2089.303,1989.075z M1467.397,1987.488
				c-0.12,0-0.241-0.011-0.364-0.036l-10.921-2.171c-1.004-0.199-1.658-1.174-1.457-2.182c0.201-1.004,1.164-1.667,2.182-1.457
				l10.921,2.171c1.004,0.199,1.658,1.174,1.457,2.182C1469.039,1986.875,1468.265,1987.488,1467.397,1987.488z M2125.773,1982.178
				c-0.875,0-1.653-0.62-1.821-1.511c-0.19-1.008,0.471-1.979,1.479-2.168l10.941-2.07c1.017-0.178,1.979,0.471,2.168,1.479
				c0.19,1.008-0.471,1.979-1.479,2.168l-10.941,2.07C2126.003,1982.167,2125.888,1982.178,2125.773,1982.178z M1430.993,1980.253
				c-0.12,0-0.241-0.011-0.364-0.036l-10.921-2.171c-1.004-0.199-1.658-1.174-1.457-2.182c0.199-1,1.172-1.678,2.182-1.457
				l10.921,2.171c1.004,0.199,1.658,1.174,1.457,2.182C1432.635,1979.64,1431.861,1980.253,1430.993,1980.253z M1394.588,1973.018
				c-0.12,0-0.241-0.011-0.364-0.036l-9.433-1.878l-0.221-4.411c-0.049-1.022,0.741-1.892,1.765-1.939
				c0.999-0.207,1.894,0.736,1.943,1.765l0.075,1.512l6.597,1.312c1.004,0.199,1.658,1.178,1.457,2.182
				C1396.23,1972.409,1395.457,1973.018,1394.588,1973.018z M2143.643,1959.813c-1.015,0-1.843-0.816-1.856-1.834
				c-0.047-3.708-0.125-7.409-0.234-11.099c-0.029-1.025,0.778-1.877,1.801-1.91c0.968,0.029,1.88,0.772,1.91,1.801
				c0.109,3.712,0.187,7.434,0.234,11.164c0.013,1.022-0.808,1.863-1.832,1.878
				C2143.659,1959.813,2143.65,1959.813,2143.643,1959.813z M1385.354,1942.498c-0.995,0-1.819-0.79-1.852-1.794
				c-0.121-3.574-0.236-7.297-0.341-11.142c-0.027-1.026,0.781-1.877,1.805-1.907c1.003,0.087,1.878,0.779,1.907,1.805
				c0.105,3.838,0.218,7.554,0.337,11.121c0.035,1.022-0.768,1.881-1.792,1.917
				C1385.398,1942.498,1385.376,1942.498,1385.354,1942.498z M2142.18,1922.736c-0.97,0-1.787-0.754-1.85-1.736
				c-0.241-3.723-0.506-7.416-0.794-11.088c-0.08-1.022,0.683-1.914,1.706-1.993c1.008-0.123,1.916,0.685,1.995,1.703
				c0.288,3.686,0.556,7.402,0.797,11.139c0.065,1.022-0.71,1.907-1.732,1.972C2142.262,1922.736,2142.22,1922.736,2142.18,1922.736
				z M1384.506,1905.385c-1.015,0-1.845-0.815-1.856-1.834c-0.042-3.661-0.072-7.384-0.089-11.15
				c-0.004-1.026,0.823-1.859,1.849-1.863h0.005c1.024,0,1.854,0.826,1.858,1.849c0.016,3.759,0.047,7.467,0.089,11.121
				c0.011,1.026-0.81,1.867-1.834,1.877C1384.521,1905.385,1384.514,1905.385,1384.506,1905.385z M2138.963,1885.739
				c-0.935,0-1.74-0.703-1.843-1.656c-0.404-3.73-0.825-7.413-1.263-11.044c-0.121-1.015,0.604-1.939,1.62-2.063
				c1.037-0.141,1.943,0.602,2.066,1.62c0.438,3.646,0.863,7.344,1.267,11.088c0.111,1.018-0.627,1.935-1.646,2.044
				C2139.098,1885.736,2139.031,1885.739,2138.963,1885.739z M1384.553,1868.265c-0.009,0-0.018,0-0.029,0
				c-1.024-0.015-1.841-0.859-1.827-1.885c0.056-3.704,0.131-7.427,0.225-11.153c0.025-1.026,0.881-1.776,1.903-1.809
				c1.024,0.025,1.834,0.877,1.809,1.903c-0.094,3.712-0.168,7.423-0.225,11.117
				C1386.393,1867.453,1385.567,1868.265,1384.553,1868.265z M2134.255,1848.913c-0.906,0-1.698-0.663-1.834-1.588
				c-0.553-3.752-1.113-7.42-1.676-10.994c-0.161-1.011,0.531-1.965,1.542-2.124c1.004-0.152,1.963,0.533,2.122,1.544
				c0.567,3.589,1.131,7.271,1.684,11.037c0.148,1.011-0.552,1.954-1.566,2.106
				C2134.436,1848.905,2134.344,1848.913,2134.255,1848.913z M1385.766,1831.159c-0.033,0-0.065,0-0.098-0.004
				c-1.024-0.051-1.811-0.924-1.758-1.95c0.196-3.737,0.415-7.456,0.66-11.142c0.069-1.026,0.952-1.834,1.975-1.729
				c1.022,0.069,1.796,0.953,1.729,1.975c-0.245,3.672-0.464,7.369-0.656,11.092
				C1387.565,1830.391,1386.746,1831.159,1385.766,1831.159z M2128.204,1812.271c-0.879,0-1.66-0.627-1.823-1.522
				c-0.704-3.832-1.394-7.478-2.064-10.925c-0.196-1.008,0.46-1.983,1.466-2.178c1.004-0.199,1.981,0.464,2.177,1.468
				c0.674,3.461,1.368,7.122,2.072,10.968c0.185,1.008-0.482,1.975-1.49,2.16C2128.427,1812.26,2128.314,1812.271,2128.204,1812.271
				z M1388.675,1794.155c-0.067,0-0.136-0.004-0.205-0.011c-1.018-0.112-1.755-1.029-1.642-2.048
				c0.417-3.777,0.87-7.485,1.359-11.102c0.139-1.015,1.073-1.776,2.088-1.588c1.017,0.138,1.729,1.069,1.591,2.088
				c-0.485,3.588-0.935,7.26-1.349,11.009C1390.413,1793.451,1389.608,1794.155,1388.675,1794.155z M2119.274,1777.369
				c-0.071,0-0.143-0.004-0.217-0.011c-3.436-0.402-7.117-0.801-11.037-1.186c-1.02-0.101-1.767-1.011-1.665-2.029
				c0.099-1.022,0.979-1.707,2.028-1.668c3.946,0.391,7.648,0.79,11.106,1.193c1.017,0.12,1.747,1.04,1.627,2.059
				C2121.005,1776.673,2120.204,1777.369,2119.274,1777.369z M2082.308,1774.027c-0.045,0-0.091,0-0.136-0.004
				c-3.569-0.257-7.268-0.507-11.093-0.75c-1.022-0.065-1.8-0.946-1.735-1.968c0.063-1.029,0.953-1.805,1.97-1.736
				c3.837,0.243,7.547,0.493,11.126,0.75c1.022,0.076,1.791,0.964,1.716,1.986
				C2084.088,1773.28,2083.272,1774.027,2082.308,1774.027z M2045.255,1771.812c-0.033,0-0.063,0-0.096-0.003
				c-3.619-0.185-7.324-0.363-11.113-0.537c-1.024-0.047-1.816-0.913-1.769-1.936c0.047-1.022,0.935-1.838,1.939-1.769
				c3.797,0.174,7.507,0.351,11.132,0.536c1.024,0.051,1.812,0.924,1.76,1.946
				C2047.056,1771.044,2046.235,1771.812,2045.255,1771.812z M2008.172,1770.188c-0.023,0-0.047,0-0.072,0l-11.122-0.402
				c-1.026-0.036-1.827-0.895-1.791-1.921c0.036-1.019,0.95-1.776,1.917-1.791l11.137,0.402c1.024,0.04,1.823,0.903,1.783,1.925
				C2009.986,1769.401,2009.164,1770.188,2008.172,1770.188z M1971.072,1768.952c-0.02,0-0.038,0-0.056,0l-11.128-0.315
				c-1.024-0.029-1.832-0.881-1.805-1.907s0.739-1.78,1.907-1.805l11.135,0.315c1.026,0.033,1.831,0.888,1.801,1.91
				C1972.895,1768.158,1972.071,1768.952,1971.072,1768.952z M1933.966,1767.991c-0.015,0-0.029,0-0.044,0l-11.131-0.246
				c-1.024-0.021-1.838-0.87-1.816-1.896c0.022-1.011,0.848-1.816,1.856-1.816c0.013,0,0.025,0,0.04,0l11.135,0.246
				c1.026,0.026,1.838,0.874,1.814,1.9C1935.797,1767.187,1934.97,1767.991,1933.966,1767.991z M1896.853,1767.245
				c-0.011,0-0.023,0-0.034,0l-11.132-0.192c-1.024-0.018-1.841-0.863-1.825-1.885c0.016-1.015,0.845-1.827,1.856-1.827
				c0.009,0,0.02,0,0.031,0l11.139,0.192c1.026,0.018,1.839,0.866,1.821,1.892
				C1898.689,1766.437,1897.863,1767.245,1896.853,1767.245z M1403.112,1767.241c-1.015,0-1.843-0.815-1.856-1.831
				c-0.013-1.025,0.808-1.867,1.832-1.881l11.144-0.134c0.007,0,0.015,0,0.022,0c1.015,0,1.843,0.815,1.856,1.834
				c0.013,1.026-0.808,1.867-1.834,1.878l-11.14,0.134C1403.128,1767.241,1403.119,1767.241,1403.112,1767.241z M1440.247,1766.817
				c-1.017,0-1.845-0.819-1.856-1.838c-0.011-1.026,0.812-1.863,1.838-1.874l11.141-0.112c0.007,0,0.013,0,0.018,0
				c1.017,0,1.846,0.819,1.856,1.838c0.009,1.025-0.814,1.863-1.838,1.874l-11.14,0.112
				C1440.259,1766.817,1440.252,1766.817,1440.247,1766.817z M1859.736,1766.661c-0.007,0-0.016,0-0.025,0l-11.131-0.145
				c-1.024-0.014-1.845-0.855-1.832-1.878c0.013-1.018,0.841-1.834,1.856-1.834c0.007,0,0.015,0,0.024,0l11.135,0.145
				c1.026,0.015,1.845,0.856,1.83,1.882C1861.578,1765.846,1860.75,1766.661,1859.736,1766.661z M1477.38,1766.458
				c-1.017,0-1.847-0.819-1.856-1.838c-0.009-1.026,0.813-1.863,1.839-1.874l11.141-0.098c0.005,0,0.011,0,0.016,0
				c1.019,0,1.847,0.819,1.856,1.841c0.009,1.022-0.816,1.863-1.839,1.87l-11.141,0.098
				C1477.391,1766.458,1477.385,1766.458,1477.38,1766.458z M1822.621,1766.223c-0.005,0-0.013,0-0.018,0l-11.133-0.105
				c-1.024-0.007-1.848-0.849-1.839-1.871c0.009-1.022,0.837-1.841,1.856-1.841c0.006,0,0.011,0,0.016,0l11.137,0.105
				c1.026,0.011,1.849,0.848,1.838,1.874C1824.466,1765.404,1823.638,1766.223,1822.621,1766.223z M1514.509,1766.157
				c-1.018,0-1.849-0.823-1.856-1.841c-0.007-1.026,0.817-1.863,1.843-1.87l11.135-0.08c0.005,0,0.009,0,0.014,0
				c1.018,0,1.848,0.823,1.856,1.841c0.007,1.026-0.817,1.863-1.841,1.87l-11.139,0.08
				C1514.518,1766.157,1514.513,1766.157,1514.509,1766.157z M1785.505,1765.907c-0.003,0-0.009,0-0.013,0l-11.133-0.072
				c-1.024-0.007-1.85-0.841-1.845-1.867c0.006-1.022,0.836-1.845,1.856-1.845c0.004,0,0.007,0,0.011,0l11.136,0.072
				c1.026,0.007,1.851,0.845,1.843,1.87C1787.353,1765.084,1786.523,1765.907,1785.505,1765.907z M1551.638,1765.907
				c-1.02,0-1.85-0.823-1.856-1.845c-0.005-1.026,0.819-1.859,1.845-1.867l11.141-0.062c0.003,0,0.005,0,0.009,0
				c1.02,0,1.85,0.827,1.856,1.849c0.005,1.022-0.823,1.859-1.847,1.863l-11.136,0.062
				C1551.646,1765.907,1551.642,1765.907,1551.638,1765.907z M1588.768,1765.723c-1.022,0-1.852-0.826-1.856-1.848
				c-0.003-1.026,0.823-1.86,1.849-1.863l11.139-0.043h0.005c1.024,0,1.854,0.826,1.858,1.848c0.004,1.026-0.823,1.86-1.848,1.863
				l-11.139,0.043H1588.768z M1748.386,1765.694h-0.005l-11.137-0.043c-1.026-0.004-1.852-0.837-1.849-1.863
				c0.004-1.022,0.834-1.848,1.856-1.848h0.007l11.135,0.043c1.026,0.004,1.852,0.837,1.849,1.863
				C1750.239,1764.867,1749.408,1765.694,1748.386,1765.694z M1625.894,1765.596c-1.022,0-1.852-0.826-1.856-1.848
				c-0.004-1.026,0.825-1.86,1.85-1.863l11.139-0.025c0.951-0.076,1.858,0.83,1.86,1.852c0.002,1.026-0.827,1.856-1.852,1.859
				l-11.135,0.025H1625.894z M1711.266,1765.574c-0.002,0-0.002,0-0.002,0l-11.135-0.018c-1.026,0-1.856-0.834-1.854-1.86
				c0.002-1.022,0.832-1.852,1.856-1.852h0.002l11.136,0.018c1.026,0.003,1.854,0.834,1.853,1.859
				C1713.12,1764.744,1712.29,1765.574,1711.266,1765.574z M1663.014,1765.538c-1.024,0-1.854-0.83-1.856-1.852
				c-0.002-1.026,0.828-1.859,1.854-1.859h11.1c1.024,0,1.874,0.833,1.872,1.856c0,1.026-0.812,1.856-1.836,1.856h-11.133H1663.014z
				"/>
			
				<linearGradient id="SVGID_00000138557262240420749670000012586479063274623411_" gradientUnits="userSpaceOnUse" x1="1862.467" y1="1864.6354" x2="2478.2915" y2="750.129">
				<stop  offset="0" style="stop-color:#09005D"/>
				<stop  offset="1" style="stop-color:#1A0F91"/>
			</linearGradient>
			<path style="fill:url(#SVGID_00000138557262240420749670000012586479063274623411_);" d="M1821.88,2111.133h-98.987
				c-12.972,0-23.896-9.651-25.435-22.471l-11.437-95.251c-1.822-15.173,10.082-28.522,25.435-28.522h118.916
				c15.042,0,26.846,12.838,25.516,27.75l-8.493,95.251C1846.223,2101.047,1835.149,2111.133,1821.88,2111.133z"/>
			
				<linearGradient id="SVGID_00000062890010173048988710000009447479231733216153_" gradientUnits="userSpaceOnUse" x1="1773.2185" y1="1802.1439" x2="1773.2185" y2="1882.4688">
				<stop  offset="0" style="stop-color:#4F52FF"/>
				<stop  offset="1" style="stop-color:#4042E2"/>
			</linearGradient>
			<path style="fill:url(#SVGID_00000062890010173048988710000009447479231733216153_);" d="M1814.037,2098.583h-79.278
				c-10.389,0-19.138-7.73-20.371-17.997l-9.16-76.286c-1.459-12.152,8.075-22.843,20.371-22.843h95.238
				c12.047,0,21.5,10.282,20.436,22.225l-6.802,76.286C1833.533,2090.504,1824.664,2098.583,1814.037,2098.583z"/>
		</g>
	</g>
</g>
</svg>
